<!DOCTYPE svg PUBLIC "-//W3C//DTD SVG 1.1//EN" "http://www.w3.org/Graphics/SVG/1.1/DTD/svg11.dtd">
<!-- Uploaded to: SVG Repo, www.svgrepo.com, Transformed by: SVG Repo Mixer Tools -->
<svg fill="#000000" width="800px" height="800px" viewBox="0 0 24 24" id="caution" data-name="Flat Line" xmlns="http://www.w3.org/2000/svg" class="icon flat-line">
<g id="SVGRepo_bgCarrier" stroke-width="0"/>
<g id="SVGRepo_tracerCarrier" stroke-linecap="round" stroke-linejoin="round"/>
<g id="SVGRepo_iconCarrier">
<path id="secondary" d="M13.2,13H10.8a1,1,0,0,1-1-.9L9,4.1A1,1,0,0,1,10,3h4a1,1,0,0,1,1,1.1l-.8,8A1,1,0,0,1,13.2,13Zm.8,6a2,2,0,1,0-2,2A2,2,0,0,0,14,19Z" style="fill: #ff9500; stroke-width:0.4800000000000001;"/>
<path id="primary" d="M13.2,13H10.8a1,1,0,0,1-1-.9L9,4.1A1,1,0,0,1,10,3h4a1,1,0,0,1,1,1.1l-.8,8A1,1,0,0,1,13.2,13Zm.8,6a2,2,0,1,0-2,2A2,2,0,0,0,14,19Z" style="fill: none; stroke: #000000; stroke-linecap: round; stroke-linejoin: round; stroke-width:0.4800000000000001;"/>
</g>
</svg>