<svg xmlns="http://www.w3.org/2000/svg" width="1116.93" height="837.11" viewBox="0 0 1116.93 837.11">
  <g id="client-data" transform="translate(-252.61 -166.93)">
    <g id="Group_19" data-name="Group 19">
      <path id="Path_81" data-name="Path 81" d="M1255.78,891.96c1.16,12.75,8.22,34.97,32.44,37.92,24.13,2.95,34.55-3.16,56.88,9.17,19.39,10.64,24.44,39.92,24.44,39.92l-52.14,25.07s-4.74-20.44-18.96-27.92c-25.17-13.16-48.87,2.64-73.63-17.27-18.85-15.17-21.17-40.76-21.17-40.76Z" fill="#fff"/>
    </g>
    <g id="Group_20" data-name="Group 20">
      <path id="Path_82" data-name="Path 82" d="M336.08,195.72,363.27,292l60.94-48.94Z" fill="#ffa0dc"/>
      <path id="Path_83" data-name="Path 83" d="M326.17,199.71a16.39,16.39,0,1,0-16.4-16.39A16.392,16.392,0,0,0,326.17,199.71Z" fill="#221f1f"/>
    </g>
    <g id="Group_21" data-name="Group 21">
      <path id="Path_84" data-name="Path 84" d="M1014.19,971.02l-293.82-1.56c-43.6-.37-78.37-35.6-77.68-78.59l4.08-585.81c.36-43.59,35.59-78.37,78.58-77.68l293.82,1.56c43.6.37,78.37,35.59,77.68,78.59l-4.08,585.8C1092.7,936,1057.47,970.78,1014.19,971.02Z" fill="#fff"/>
      <path id="Path_85" data-name="Path 85" d="M987.4,578.91l-234.87-1.49a45.217,45.217,0,0,1-44.8-45.47l1.17-189.74a45.21,45.21,0,0,1,45.47-44.8l234.87,1.5a45.2,45.2,0,0,1,44.79,45.47l-1.16,189.74A45.2,45.2,0,0,1,987.4,578.91Z" fill="#ff4f32"/>
      <path id="Path_86" data-name="Path 86" d="M985.74,789.84l-234.87-1.49a45.21,45.21,0,0,1-44.8-45.47l.16-54.34a45.208,45.208,0,0,1,45.46-44.8l234.88,1.5a45.2,45.2,0,0,1,44.79,45.47l-.15,54.34C1031.09,769.92,1011.22,789.65,985.74,789.84Z" fill="#61ccff"/>
    </g>
    <g id="Group_22" data-name="Group 22">
      <path id="Path_87" data-name="Path 87" d="M349.1,381.01l-96.49,10.65,37.14,66.13Z" fill="#ff4f32"/>
      <path id="Path_88" data-name="Path 88" d="M353.31,386.48a15.9,15.9,0,1,0-3.76-22.17A15.906,15.906,0,0,0,353.31,386.48Z" fill="#221f1f"/>
    </g>
    <g id="Group_23" data-name="Group 23">
      <path id="Path_89" data-name="Path 89" d="M309.97,829.4a47.27,47.27,0,1,0-47.27-47.27A47.291,47.291,0,0,0,309.97,829.4Z" fill="#fff"/>
    </g>
    <g id="Group_24" data-name="Group 24">
      <path id="Path_90" data-name="Path 90" d="M1097.08,193.25a68.55,68.55,0,1,1-68.55,68.55A68.562,68.562,0,0,1,1097.08,193.25Z" fill="#ffa0dc"/>
      <path id="Path_91" data-name="Path 91" d="M1133.67,270.93a5.981,5.981,0,0,1-5.74,4.17.078.078,0,0,0-.08.08,5.675,5.675,0,0,1,.63,4.64,6.011,6.011,0,0,1-5.75,4.18.069.069,0,0,0-.07.07,5.916,5.916,0,0,1,.15,5.83,6.083,6.083,0,0,1-7,2.75l-15.35-4.48a70.434,70.434,0,0,1-15.58-6.69,4.757,4.757,0,0,1-2.2-5.35l8.97-30.7a4.482,4.482,0,0,1,2.12-2.67c5.12-2.99,20.78-12.28,23.06-12.99,10.71-1.34-.55,15.27-2.75,18.97,0,.08,0,.08.08.08,1.41.39,17.94,5.27,17.94,5.27,5.67,1.42,6.14,9.76.31,11.25-.07,0-.07.08,0,.16A5.494,5.494,0,0,1,1133.67,270.93Z" fill="#fff"/>
      <path id="Path_92" data-name="Path 92" d="M1087.32,241.5l-10.86,37.22a3.5,3.5,0,0,1-4.25,2.36l-12.99-3.77a3.512,3.512,0,0,1-2.36-4.25l10.86-37.31a3.512,3.512,0,0,1,4.25-2.36l13.07,3.86A3.31,3.31,0,0,1,1087.32,241.5Z" fill="#fff"/>
    </g>
    <g id="Group_25" data-name="Group 25">
      <path id="Path_93" data-name="Path 93" d="M577.42,528.2l-4.05,27.31H482.61l-5.25-27.23-1.65-8.03L578.1,524.3Z" fill="#846146"/>
      <path id="Path_94" data-name="Path 94" d="M444.35,513.28c3.53-27.68,11.63-62.63,22.88-80.64,10.13-16.27,35.63-25.13,35.63-25.13s-.82-3.97-2.02-9.75h54.23l2.17,8.63c33.01-.75,52.51,21,52.51,21l28.13,27.38,10.5-25.5,49.88,15.15c-5.32,35.1-19.73,76.96-48.38,81.61-27.75,4.5-67.13-30.38-67.13-30.38l-4.8,29.63H477.36l6.15,31.8-11.4,14.71C460.11,563.53,439.85,548.53,444.35,513.28Z" fill="#61ccff"/>
      <path id="Path_95" data-name="Path 95" d="M645,437.44l5.03,29.63-12.15-12.3Z" opacity="0.2"/>
      <path id="Path_96" data-name="Path 96" d="M472.71,500.83l10.8,56.25-11.03,14.93a91.385,91.385,0,0,1-13.87-11.18C465.06,551.23,471.36,543.28,472.71,500.83Z" opacity="0.2"/>
      <path id="Path_97" data-name="Path 97" d="M582.6,496.4l-3.08,19.05-12.53-33.53Z" opacity="0.2"/>
      <path id="Path_98" data-name="Path 98" d="M658.66,403.16c-3-24-1.5-45.75,0-49.5.9-2.18,4.5-.75,6.75,2.25,3-22.5,10.5-33.01,15.75-32.26,3-4.5,7.5-4.5,9.75.75,4.5,0,5.7,3.68,6,7.51.75,10.5-1.5,21.75-.75,33.75,2.25-6,8.25-26.03,12.75-25.5,6.75.75-1.72,21-.75,40.5,1.5,30.76-7.5,37.51-7.5,37.51a216.931,216.931,0,0,1-2.62,27.9L647.7,430.84Z" fill="#846146"/>
      <path id="Path_99" data-name="Path 99" d="M472.11,495.28l5.25,30" fill="none" stroke="#000" stroke-linecap="round" stroke-linejoin="round" stroke-width="4"/>
      <path id="Path_100" data-name="Path 100" d="M582.75,495.65l-10.21-8.63" fill="none" stroke="#000" stroke-linecap="round" stroke-linejoin="round" stroke-width="4"/>
      <path id="Path_101" data-name="Path 101" d="M637.88,454.77l11.25,11.25" fill="none" stroke="#000" stroke-linecap="round" stroke-linejoin="round" stroke-width="4"/>
      <path id="Path_102" data-name="Path 102" d="M690.76,324.4s-5.25,18.01-6.75,45.76" fill="none" stroke="#000" stroke-linecap="round" stroke-linejoin="round" stroke-width="4"/>
      <path id="Path_103" data-name="Path 103" d="M681.16,323.65s-6.98,15.01-9.23,44.26" fill="none" stroke="#000" stroke-linecap="round" stroke-linejoin="round" stroke-width="4"/>
      <path id="Path_104" data-name="Path 104" d="M696.16,365.66l-.9,7.5" fill="none" stroke="#000" stroke-linecap="round" stroke-linejoin="round" stroke-width="4"/>
      <path id="Path_105" data-name="Path 105" d="M665.41,355.91c.52,0-2.33,13.5-3.23,23.25" fill="none" stroke="#000" stroke-linecap="round" stroke-linejoin="round" stroke-width="4"/>
      <path id="Path_106" data-name="Path 106" d="M506.76,960.33a26.264,26.264,0,0,1,4.35,12.76H402.35a125.245,125.245,0,0,1-2.93-12.76Z" fill="#292e30"/>
      <path id="Path_107" data-name="Path 107" d="M397.85,868.07c.15-1.87.37-3.67.6-5.47l3.75-15.3,78.46.52s-3.38,15.45-3,15.38c-10.43,31.65-15.3,55.8-6.3,65.63a68.1,68.1,0,0,0,6.3,6.08l-9.9,26.17H418.85l-22.58-31.42A402.136,402.136,0,0,1,397.85,868.07Z" fill="#846146"/>
      <path id="Path_108" data-name="Path 108" d="M477.66,934.91c10.87,9.37,23.4,16.12,29.55,26.17H462.36A33.54,33.54,0,0,1,477.66,934.91Z" fill="#61ccff"/>
      <path id="Path_109" data-name="Path 109" d="M396.2,929.66a33.346,33.346,0,0,1,31.58,31.42H399.57A277.216,277.216,0,0,1,396.2,929.66Z" fill="#61ccff"/>
      <path id="Path_110" data-name="Path 110" d="M422.6,943.83l46.51-23.25" fill="none" stroke="#181818" stroke-linecap="round" stroke-linejoin="round" stroke-width="4"/>
      <path id="Path_111" data-name="Path 111" d="M409.25,815.57h85.36c-2.03,5.47-4.05,10.87-5.93,16.27-4.05,11.03-7.8,21.61-11.02,31.43-.83.08-1.65.15-2.48.15a18.655,18.655,0,0,1-17.85-13.27,18.649,18.649,0,0,1-35.7,0,18.777,18.777,0,0,1-23.18,12.52,221.264,221.264,0,0,1,7.35-36.38C406.92,822.47,408.05,818.94,409.25,815.57Z" fill="#d1c6a5"/>
      <path id="Path_112" data-name="Path 112" d="M440.6,711.3c.75-84.01,12-121.29,42.01-158.04h90.76s35.25,110.79,29.25,204.55c-1.35,21.15-3,40.43-4.57,57.76l-.08.07H516.89c3.97-30.68,10.5-54.68,4.42-86.18a220.9,220.9,0,0,1-7.95,33.6c-6.07,18-12.6,35.7-18.75,52.51l-.52.75-84.84.67v-1.42C422.15,779.04,440.15,758.03,440.6,711.3Z" fill="#ffc930"/>
      <path id="Path_113" data-name="Path 113" d="M493.48,684.67c-11.85-56.85,1.13-69.45,1.13-69.45-.22,42.38,27.45,118.29,27.45,118.29-2.62,7.72-13.87,44.93-16.57,52.5C505.41,786.01,507.14,750.31,493.48,684.67Z" fill="#0f0d07" opacity="0.2"/>
      <path id="Path_114" data-name="Path 114" d="M459.81,619.04a18.95,18.95,0,0,1-9.68-2.7,152.608,152.608,0,0,1,12.6-33.3h18.38l-3,20.17A18.5,18.5,0,0,1,459.81,619.04Z" fill="#d1c6a5"/>
      <path id="Path_115" data-name="Path 115" d="M644.63,973.09H535.87s-1.95-4.35-4.66-12.76H640.05A24.857,24.857,0,0,1,644.63,973.09Z" fill="#292e30"/>
      <path id="Path_116" data-name="Path 116" d="M523.11,930.03a431.5,431.5,0,0,1-8.25-64.21c-.07-.9,0-1.72-.07-2.62.3.07,2.47-15,2.47-15l75.69-.83L594,862.82c-2.25,32.33-1.58,53.56,7.8,63.76a90.03,90.03,0,0,0,9.22,8.48l-5.85,26.1H545.39Z" fill="#846146"/>
      <path id="Path_117" data-name="Path 117" d="M611.02,934.98c10.88,8.78,23.26,16.13,29.56,26.1H595.95A33.446,33.446,0,0,1,611.02,934.98Z" fill="#61ccff"/>
      <path id="Path_118" data-name="Path 118" d="M523.11,930.03a35.607,35.607,0,0,1,5.63-.45,33.323,33.323,0,0,1,33.3,31.5H531.21A317.4,317.4,0,0,1,523.11,930.03Z" fill="#61ccff"/>
      <path id="Path_119" data-name="Path 119" d="M482.61,553.26h90.76" fill="none" stroke="#000" stroke-linecap="round" stroke-linejoin="round" stroke-width="4"/>
      <path id="Path_120" data-name="Path 120" d="M522.06,733.51a156.513,156.513,0,0,0-7.2-27.46c-13.87-38.7-19.72-68.56-21.53-92.56" fill="none" stroke="#000" stroke-linecap="round" stroke-linejoin="round" stroke-width="4"/>
      <path id="Path_121" data-name="Path 121" d="M546.37,583.04H507.36l2.93,20.17a18.47,18.47,0,0,0,36.75-2.7v-.75Z" fill="#d1c6a5"/>
      <path id="Path_122" data-name="Path 122" d="M554.62,941.58l44.25-23.25" fill="none" stroke="#181818" stroke-linecap="round" stroke-linejoin="round" stroke-width="4"/>
      <path id="Path_123" data-name="Path 123" d="M597,826.97c-1.13,12.82-2.18,24.53-2.93,35.03a18.684,18.684,0,0,1-22.65-12.6,18.649,18.649,0,0,1-35.7,0,18.731,18.731,0,0,1-17.86,13.27,20.294,20.294,0,0,1-3-.22,255.315,255.315,0,0,1,1.05-36.98c.38-3.6.6-7.13,1.05-10.65h81.16Q597.565,821.12,597,826.97Z" fill="#d1c6a5"/>
      <path id="Path_124" data-name="Path 124" d="M505.34,357.18c-2.25-12-9.98-27.6,3.15-38.48s25.88-24.45,43.13-17.7c16.27,6.38,19.57,19.13,26.25,39.01,0,0,7.5.75,8.25,3.75.83,3.22-3.75,9-3.75,9,5.25,16.5,5.93,25.28.3,33.15-6.82,9.6-22.2,9.3-28.88,6.68l1.5,5.92H500.84C498.14,385.61,506.91,365.43,505.34,357.18Z" fill="#846146"/>
      <path id="Path_125" data-name="Path 125" d="M553.79,392.59l2.25,9.07-14.55-14.7Z" fill="#151414" opacity="0.2"/>
      <path id="Path_126" data-name="Path 126" d="M490.56,347.21c-1.13-8.1-1.8-17.93.6-26.33-9.45,2.4-20.78-.38-29.7-8.1-13.36-11.7-16.21-30.23-6.38-41.48s28.65-10.95,42.01.75c9.6,8.4,13.8,20.33,11.7,30.6,12.82-5.85,29.25-7.2,42.53-1.95a32.32,32.32,0,0,1,16.95,14.7s-4.05,5.18-20.55-1.57c24.75,26.25-9.75,20.25-9.75,20.25s3.75,3.75,3.75,13.5c0,0-22.96-6.9-27.01,4.5-4.5,12.75,6,21.01,15.75,24.01,0,0,18.01,42,3.76,80.26H515.61s-1.57-24.01-5.32-33.01l-18.76,33.01H426.28C427.78,368.51,496.79,394.01,490.56,347.21Z" fill="#231f20"/>
      <path id="Path_127" data-name="Path 127" d="M497.46,317.73l3.15.22c-3.75,7.95-11.1,15.46-11.1,15.46C489.66,324.03,490.03,319.08,497.46,317.73Z" opacity="0.2"/>
      <path id="Path_128" data-name="Path 128" d="M529.86,388.01a9.75,9.75,0,1,1,9.76-9.75A9.75,9.75,0,0,1,529.86,388.01Z" fill="#dde0e2"/>
      <path id="Path_129" data-name="Path 129" d="M553.79,392.59l-7.57-3.45" fill="none" stroke="#000" stroke-linecap="round" stroke-linejoin="round" stroke-width="4"/>
      <path id="Path_130" data-name="Path 130" d="M532.86,361.01l-8.25-3" fill="none" stroke="#000" stroke-linecap="round" stroke-linejoin="round" stroke-width="4"/>
      <path id="Path_131" data-name="Path 131" d="M574.87,361.01c-4.5,1.5-8.25-2.25-8.25-2.25" fill="none" stroke="#000" stroke-linecap="round" stroke-linejoin="round" stroke-width="4"/>
      <path id="Path_132" data-name="Path 132" d="M491.01,320.95a24.223,24.223,0,0,0,12.45-7.42,23.761,23.761,0,0,0,5.4-11.33" fill="none" stroke="#000" stroke-linecap="round" stroke-linejoin="round" stroke-width="4"/>
      <path id="Path_133" data-name="Path 133" d="M573.52,325.98c3.6-.83,7.65,3.67,9.08,9.98,1.12,5.25.07,10.12-2.4,12.07" fill="none" stroke="#000" stroke-linecap="round" stroke-linejoin="round" stroke-width="4"/>
      <path id="Path_134" data-name="Path 134" d="M582.45,335.36l-40.58,10.65" fill="none" stroke="#000" stroke-linecap="round" stroke-linejoin="round" stroke-width="4"/>
    </g>
    <g id="Group_26" data-name="Group 26">
      <path id="Path_135" data-name="Path 135" d="M1059.52,639.52c-26.48,76.32-74.84,76.32-55.79,146.84h74.84C1099.24,753.94,1077.49,587.64,1059.52,639.52Z" fill="#231f20"/>
      <path id="Path_136" data-name="Path 136" d="M1052.23,773.66a.127.127,0,0,1,.13.13c-1.08,2.57-11.48,29.86,18.78,33.1,36.07,3.78,60.79-38.5,61.87-40.39h.13c2.44,0,71.06-1.35,96.46,34.31v.14c-55.93,86.45-171.43,110.9-257.75,54.98a183.245,183.245,0,0,1-39.45-34.04v-.14C974.69,775.96,1047.77,773.79,1052.23,773.66Z" fill="#ffc930"/>
      <path id="Path_137" data-name="Path 137" d="M990.63,662.89c.81-7.16,1.62-17.7,2.83-28.24.54-4.05,5.27-7.83,5.95-11.88,2.29-13.65,3.37-21.08,9.32-27.56,12.16-13.65,39.31-26.34,70.92-22.97,30.66,3.24,55.39,23.64,56.47,66.6.54,21.62.4,55.66.13,82.68-.27,23.77-.54,42.14-.54,42.14s-2.43,65.39-48.23,72.54c-47.01,7.3-41.06-65.38-41.06-65.38V739.89s-26.48,11.07-47.55-3.52C976.98,721.24,988.6,681.93,990.63,662.89Z" fill="#f49e73"/>
      <path id="Path_138" data-name="Path 138" d="M1046.42,762.18V740.02a.127.127,0,0,1,.13-.13,137.988,137.988,0,0,0,19.46-8.51c.13,0,.27.13.13.13l-19.45,30.67C1046.55,762.31,1046.42,762.31,1046.42,762.18Z" fill="#171717" opacity="0.2"/>
      <path id="Path_139" data-name="Path 139" d="M995.22,622.9c2.3-13.64,5.54-24.32,11.48-30.8,12.16-13.64,41.34-27.69,72.95-24.32,30.66,3.25,53.22,15.54,71.06,67.28,26.47,76.32,75.24,76.32,56.19,146.7l-.13.14H1097.75c-19.99-31.61-7.83-67.27-7.29-68.9l.13-.13c1.62-.68,41.61-18.37,32.29-44.04-10-27.02-48.9-4.46-51.2-2.97h-.14c-9.32-15,0-38.64,1.35-42.01,0-.14-.13-.27-.27-.14-2.7,1.89-19.85,13.24-33.36,15.94-31.61,6.35-44.85-4.05-45.8-4.86v-.14C994,630.06,994.54,626.68,995.22,622.9Z" fill="#231f20"/>
      <path id="Path_140" data-name="Path 140" d="M1096.67,678.96l-11.48,7.3" fill="none" stroke="#171717" stroke-linecap="round" stroke-linejoin="round" stroke-width="4"/>
      <path id="Path_141" data-name="Path 141" d="M1014.54,680.45c-1.22,2.16-2.98,5.54-2.57,7.7a5.615,5.615,0,0,0,2.7,3.11" fill="none" stroke="#171717" stroke-linecap="round" stroke-linejoin="round" stroke-width="4"/>
      <path id="Path_142" data-name="Path 142" d="M1026.42,697.6a7.084,7.084,0,0,1-7.83,6.62h-.27" fill="none" stroke="#171717" stroke-linecap="round" stroke-linejoin="round" stroke-width="4"/>
      <path id="Path_143" data-name="Path 143" d="M1044.39,740.68c8.24-2.56,22.02-11.48,22.02-11.48" fill="none" stroke="#171717" stroke-linecap="round" stroke-linejoin="round" stroke-width="4"/>
      <path id="Path_144" data-name="Path 144" d="M1035.48,670.99a3.78,3.78,0,1,1,3.78-3.78A3.786,3.786,0,0,1,1035.48,670.99Z" fill="#231f20"/>
      <path id="Path_145" data-name="Path 145" d="M1000.76,667.2a3.785,3.785,0,1,1,3.78-3.79A3.773,3.773,0,0,1,1000.76,667.2Z" fill="#231f20"/>
      <path id="Path_146" data-name="Path 146" d="M1093.43,730.57a14.725,14.725,0,1,1,14.72-14.73A14.737,14.737,0,0,1,1093.43,730.57Z" fill="#ffd04c"/>
    </g>
    <g id="Group_27" data-name="Group 27">
      <path id="Path_147" data-name="Path 147" d="M1146.29,509.03c-13.9-62.32-1.78-137.29,23.59-140.31,24.06-2.89,32.05,57.48,24.77,73.2-5.5,11.89-16.02-.23-5.44-25.42,9.7-23,38.08-70.13,64.69-68.94s3.61,49.01,3.61,49.01l104.65-38.72" fill="none" stroke="#221f1f" stroke-linecap="round" stroke-linejoin="round" stroke-width="4"/>
    </g>
  </g>
</svg>
