<svg xmlns="http://www.w3.org/2000/svg" height="1200" width="1600" version="1.1" xmlns:xlink="http://www.w3.org/1999/xlink" xmlns:svgjs="http://svgjs.com/svgjs"><rect fill="#f2ebe9" width="1600" height="1200"></rect><g><path d="M786.5 261.74H601.87C596.27 261.74 592.96 257.76 592.2 253.77 591.43 249.79 592.96 244.87 598.13 242.66L693.63 203.05C694.05 202.88 694.48 202.88 694.9 203.05L790.31 242.66C795.49 244.87 797.01 249.87 796.17 253.77 795.4 257.84 792.1 261.74 786.5 261.74ZM694.22 206.53L599.41 245.88C595.76 247.41 595.08 250.72 595.5 253.18 596.01 255.55 597.96 258.44 601.87 258.44H786.5C790.4 258.44 792.35 255.64 792.86 253.26 793.37 250.8 792.6 247.5 788.96 245.88L694.22 206.53Z" fill="#ff4f32" opacity="1" stroke-width="4" stroke="none"></path><path d="M694.31 205.26C693.38 205.26 692.61 204.5 692.61 203.56V188.38C692.61 187.45 693.38 186.69 694.31 186.69H701.01C709.41 186.69 716.27 179.82 716.27 171.42 716.27 167.35 714.66 163.53 711.78 160.65 708.9 157.77 705.08 156.15 701.01 156.15 694.65 156.15 689.47 161.33 689.47 167.69 689.47 168.62 688.71 169.38 687.78 169.38 686.85 169.38 686.08 168.62 686.08 167.69 686.08 159.46 692.78 152.76 701.01 152.76 706.01 152.76 710.68 154.71 714.24 158.19 717.8 161.75 719.67 166.42 719.67 171.42 719.67 181.68 711.27 190.08 701.01 190.08H696.01V203.56C696.01 204.58 695.24 205.26 694.31 205.26Z" fill="#ff4f32" opacity="1" stroke-width="4" stroke="none"></path><path d="M767.25 250.97H621.29C621.29 250.97 593.21 372.42 610.18 566.21H680.91L692.1 358.6C692.19 357.41 693.21 356.56 694.39 356.65 695.41 356.73 696.26 357.58 696.34 358.6L707.54 566.21H778.27C795.32 372.42 767.25 250.97 767.25 250.97Z" fill="#ffc930" opacity="1" stroke-width="4" stroke="none"></path><path d="M706.44 545.52L782.94 490.31C783.36 477.08 783.61 464.36 783.7 452.06L704.49 509.31 706.44 545.52Z" fill="#fedc7b" opacity="1" stroke-width="4" stroke="none"></path><path d="M682.01 545.52L605.51 490.31C605.09 477.08 604.83 464.36 604.75 452.06L683.96 509.31 682.01 545.52Z" fill="#fedc7b" opacity="1" stroke-width="4" stroke="none"></path></g><g><path d="M701.04 587.21H626.64C626.64 587.21 618.01 631.17 643.88 654.48H718.28C692.41 631.17 701.04 587.21 701.04 587.21Z" fill="#ffffff" opacity="1" stroke-width="4" stroke="none"></path></g><g><path d="M635.86 850.83H658.58V967.48H635.86V850.83Z" fill="#3c2c5b" opacity="1" stroke-width="4" stroke="none"></path><path d="M658.58 882.85V872.03H635.86V888.13L658.58 882.85Z" fill="#332749" opacity="0.2" stroke-width="4" stroke="none"></path><path d="M620.83 854.41L672.71 854.41V877.13H620.83V854.41Z" fill="#ffa0dc" opacity="1" stroke-width="4" stroke="none"></path><path d="M672.71 854.41L620.92 854.41V871.49L672.71 860.67V854.41Z" fill="#000000" opacity="0.2" stroke-width="4" stroke="none"></path><path d="M621.28 959.43H673.16V982.15H621.28V959.43Z" fill="#ffa0dc" opacity="1" stroke-width="4" stroke="none"></path><path d="M762.79 844.03L787.75 702.6C790.79 685.43 779.34 671.56 762.17 671.56H655.18C638.01 671.56 621.72 685.43 618.68 702.6L593.73 844.03C593.01 847.25 594.98 850.47 598.2 851.19 598.73 851.28 599.27 851.37 599.81 851.37H754.21C758.5 851.28 762.08 848.23 762.79 844.03Z" fill="#ffa0dc" opacity="1" stroke-width="4" stroke="none"></path><path d="M517.96 842.87V843.23C517.96 849.4 522.97 854.41 529.14 854.41L751.43 854.41C757.6 854.41 762.61 849.4 762.61 843.23V842.87C762.61 836.7 757.6 831.69 751.43 831.69H529.14C522.97 831.69 517.96 836.7 517.96 842.87Z" fill="#3c2c5b" opacity="1" stroke-width="4" stroke="none"></path><path d="M717.71 1014.89V994.76C717.71 987.78 712.07 982.15 705.1 982.15H589.34C582.36 982.15 576.73 987.78 576.73 994.76V1014.89" stroke="#000000" stroke-width="4" stroke-linecap="round" stroke-linejoin="round" opacity="1" fill="none"></path><path d="M647.22 982.15V998.52" stroke="#000000" stroke-width="4" stroke-linecap="round" stroke-linejoin="round" opacity="1" fill="none"></path><path d="M717.44 1036.71C706.62 1036.71 697.85 1027.95 697.85 1017.12 697.85 1006.31 706.62 997.53 717.44 997.53 728.26 997.53 737.03 1006.31 737.03 1017.12 737.03 1027.95 728.26 1036.71 717.44 1036.71Z" fill="#3c2c5b" opacity="1" stroke-width="4" stroke="none"></path><path d="M717.44 1022.58C714.43 1022.58 711.98 1020.14 711.98 1017.12 711.98 1014.11 714.43 1011.67 717.44 1011.67 720.45 1011.67 722.9 1014.11 722.9 1017.12 722.9 1020.14 720.45 1022.58 717.44 1022.58Z" fill="#c7b8e5" opacity="1" stroke-width="4" stroke="none"></path><path d="M574.73 1036.59C563.96 1035.52 556.09 1025.93 557.16 1015.16 558.22 1004.4 567.82 996.53 578.58 997.6 589.35 998.67 597.21 1008.26 596.15 1019.03 595.09 1029.79 585.49 1037.65 574.73 1036.59Z" fill="#3c2c5b" opacity="1" stroke-width="4" stroke="none"></path><path d="M576.64 1022.58C573.63 1022.58 571.18 1020.14 571.18 1017.12 571.18 1014.11 573.63 1011.67 576.64 1011.67 579.65 1011.67 582.1 1014.11 582.1 1017.12 582.1 1020.14 579.65 1022.58 576.64 1022.58Z" fill="#c7b8e5" opacity="1" stroke-width="4" stroke="none"></path><path d="M647.58 1036.71C636.76 1036.71 627.99 1027.95 627.99 1017.12 627.99 1006.31 636.76 997.53 647.58 997.53 658.4 997.53 667.17 1006.31 667.17 1017.12 667.17 1027.95 658.4 1036.71 647.58 1036.71Z" fill="#3c2c5b" opacity="1" stroke-width="4" stroke="none"></path><path d="M647.58 1022.58C644.56 1022.58 642.12 1020.14 642.12 1017.12 642.12 1014.11 644.56 1011.67 647.58 1011.67 650.59 1011.67 653.03 1014.11 653.03 1017.12 653.03 1020.14 650.59 1022.58 647.58 1022.58Z" fill="#c7b8e5" opacity="1" stroke-width="4" stroke="none"></path><path d="M658.58 959.43H635.86" stroke="#000000" stroke-width="4" stroke-linecap="round" stroke-linejoin="round" opacity="1" fill="none"></path><path d="M658.13 879.01H636.39" stroke="#000000" stroke-width="4" stroke-linecap="round" stroke-linejoin="round" opacity="1" fill="none"></path><path d="M672.71 855.39L621.81 855.39" stroke="#332749" stroke-width="4" stroke-linecap="round" stroke-linejoin="round" opacity="1" fill="none"></path></g><g><path d="M757.69 703.02L776.33 692.88 776.35 692.86H895.21V693.05H900.81C906.45 693.05 909.52 697.48 909.52 703.12 909.52 708.77 909.33 712.97 903.68 712.97L895.16 713.26 776.31 713.33 757.69 703.17C757.67 703.08 757.67 703.04 757.69 703.02Z" fill="#ff4f32" opacity="1" stroke-width="4" stroke="none"></path><path d="M776.4 692.88L776.37 713.24C776.37 713.26 776.33 713.28 776.31 713.28L757.69 703.08C757.67 703.06 757.67 703.02 757.69 703.02L776.35 692.84C776.35 692.84 776.4 692.84 776.4 692.88Z" fill="#ffffff" opacity="1" stroke-width="4" stroke="none"></path><path d="M768.05 708.75L757.61 703.04 768.05 697.35V708.75Z" fill="#ffc930" opacity="1" stroke-width="4" stroke="none"></path><path d="M903.73 692.84C909.37 692.84 913.95 697.42 913.95 703.06 913.95 708.71 909.37 713.28 903.73 713.28H899.25V692.84H903.73Z" fill="#231f20" opacity="1" stroke-width="4" stroke="none"></path><path d="M892.01 692.84H899.47V713.28H892.01V692.84Z" fill="#000000" opacity="1" stroke-width="4" stroke="none"></path><path d="M891.91 699.35L776.67 699.27" stroke="#3c3635" stroke-width="4" stroke-linecap="round" stroke-linejoin="round" opacity="1" fill="none"></path><path d="M891.99 707.43L776.67 707.34" stroke="#3c3635" stroke-width="4" stroke-linecap="round" stroke-linejoin="round" opacity="1" fill="none"></path><path d="M910.5 695.24C906.2 697.42 904.45 702.66 906.6 706.96 907.43 708.6 908.73 709.94 910.37 710.79" stroke="#3d3d3d" stroke-width="4" stroke-linecap="round" stroke-linejoin="round" opacity="1" fill="none"></path></g><g><path d="M363.63 1013.88H496.69C496.69 977.06 466.92 947.39 430.2 947.39 393.48 947.39 363.63 977.16 363.63 1013.88Z" fill="#61ccff" opacity="1" stroke-width="4" stroke="none"></path><path d="M475.91 541.83C475.91 541.83 514.47 479.21 527.51 429.54L475.33 407.22C462.58 401.81 456.29 389.25 456.29 375.33H404.11C404.11 389.15 397.83 401.71 385.08 407.22L332.9 429.54C345.94 479.21 384.5 541.83 384.5 541.83H475.91Z" fill="#ffa0dc" opacity="1" stroke-width="4" stroke="none"></path><path d="M430.2 775V947.3" stroke="#000000" stroke-width="4" stroke-linecap="round" stroke-linejoin="round" opacity="1" fill="none"></path><path d="M545.87 736.35C544.04 735.96 544.04 735.96 545.87 736.35 525.29 620.87 480.55 541.83 480.55 541.83 480.55 541.83 514.37 484.62 527.42 429.54L484.61 411.18 430.11 490.81 375.7 411.28 332.9 429.64C345.94 484.72 379.76 541.92 379.76 541.92 379.76 541.92 335.12 620.97 314.54 736.35 313.18 743.79 312.02 751.33 310.86 759.06H549.45C548.38 751.33 547.23 743.69 545.87 736.35Z" fill="#ffc930" opacity="1" stroke-width="4" stroke="none"></path><path d="M549.54 758.96H310.96C310.28 763.79 309.61 768.53 309.03 773.46 308.25 780.12 307.48 786.79 306.9 793.65 307 793.65 307.09 793.75 307.09 793.75 322.27 800.9 340.43 794.42 347.58 779.16 354.73 794.33 372.9 800.9 388.07 793.75 394.45 790.75 399.67 785.53 402.66 779.16 409.81 794.33 427.98 800.9 443.15 793.75 449.53 790.75 454.75 785.53 457.74 779.16 464.89 794.33 483.06 800.9 498.23 793.75 504.61 790.75 509.83 785.53 512.82 779.16 519.98 794.33 553.41 793.65 553.51 793.65 553.51 793.65 552.25 780.03 551.48 773.46 550.8 768.62 550.22 763.79 549.54 758.96Z" fill="#3c2c5b" opacity="1" stroke-width="4" stroke="none"></path><path d="M345.65 424.13L332.99 429.54C346.04 484.62 379.86 541.83 379.86 541.83 379.86 541.83 335.21 620.87 314.63 736.25 313.28 743.69 312.12 751.23 310.96 758.96 310.28 763.79 309.61 768.53 309.03 773.46 308.25 780.12 307.48 786.79 306.9 793.65 307 793.65 307.09 793.75 307.09 793.75 322.27 800.9 340.43 794.42 347.58 779.16 352.03 788.63 360.82 794.81 370.49 796.26 370.58 651.22 412.04 541.73 412.04 541.73 363.72 488.39 345.65 424.13 345.65 424.13Z" fill="#a3883c" opacity="0.3" stroke-width="4" stroke="none"></path><path d="M310.96 758.96H549.55" stroke="#a3883c" stroke-width="4" stroke-linecap="round" stroke-linejoin="round" opacity="1" fill="none"></path><path d="M480.55 541.83H379.86" stroke="#a3883c" stroke-width="4" stroke-linecap="round" stroke-linejoin="round" opacity="1" fill="none"></path><path d="M448.76 614.3L430.4 541.83 412.04 614.3" stroke="#a3883c" stroke-width="4" stroke-linecap="round" stroke-linejoin="round" opacity="1" fill="none"></path><path d="M445.09 1000.64C418.32 1000.64 394.64 988.75 379.86 970.49 369.81 982.08 363.82 997.35 363.82 1013.88H496.88C496.88 1004.41 494.95 995.52 491.47 987.4 478.13 995.71 462.29 1000.64 445.09 1000.64Z" fill="#00a4f2" opacity="0.3" stroke-width="4" stroke="none"></path></g><g><path d="M894.27 713.52H399.51C376.04 713.52 357.06 732.5 357.06 755.97V1038.36C357.06 1045.46 362.85 1051.25 369.94 1051.25 370.04 1051.25 370.04 1051.25 370.14 1051.25 377.24 1050.95 382.83 1045.06 382.73 1037.96V762.47C382.73 749.68 393.12 739.29 405.9 739.29H887.78C900.56 739.29 910.95 749.68 910.95 762.47V1037.86C910.85 1044.96 916.44 1050.85 923.54 1051.15 930.63 1051.35 936.52 1045.66 936.72 1038.56 936.72 1038.46 936.72 1038.36 936.72 1038.26V755.97C936.72 732.5 917.74 713.52 894.27 713.52Z" fill="#3c2c5b" opacity="1" stroke-width="4" stroke="none"></path></g><g><path d="M900.71 603.98L945.82 614.46 925.44 622.33 923.84 644.09 900.71 603.98Z" fill="#ffffff" opacity="0.2" stroke-width="4" stroke="none"></path><path d="M1036.55 700.38C1028.33 705.23 1007.09 708.6 1004.44 694.43 1001.78 680.27 1018.77 650.45 1045.51 630.85 1067.56 614.68 1072.63 630.9 1051.86 649.01 1033.78 664.82 1002.75 679.63 977.01 668.91 951.27 658.19 973.18 627.32 982.71 618.57 989.15 612.64 996.08 614.26 990.09 620.45 984.09 626.64 957.53 637.13 929.89 615.09" stroke="#ffffff" stroke-width="4" stroke-linecap="round" stroke-linejoin="round" opacity="1" fill="none"></path><path d="M905 596.6L950.11 607.08 929.72 614.94 928.12 636.7 905 596.6Z" fill="#ffc930" opacity="1" stroke-width="4" stroke="none"></path></g><g><path d="M920.81 417.79C900.39 403.58 849.16 382.81 848.89 393.82 848.71 400.48 859.54 406.25 873.75 415.13 870.2 415.13 865.76 422.23 871.09 428.45 864.87 430.22 863.98 436.7 867.54 441.76 862.21 446.2 864.87 454.2 868.42 457.75 872.6 461.92 876.42 464.85 884.41 463.07 890.62 471.07 898.61 476.39 906.61 478.17 908.29 481.01 911.4 490.07 916.99 501.17L967.25 462.1C951.8 445.4 933.78 426.85 920.81 417.79Z" fill="#e5bb98" opacity="1" stroke-width="4" stroke="none"></path><path d="M1240.48 558.97C1234.26 519.01 1209.75 460.23 1196.97 446.2 1182.05 429.78 1158.52 426.67 1158.52 426.67 1159.05 424.18 1159.67 421.16 1160.3 417.79H1095.65L1094.15 426.67H1091.48C1065.47 426.67 1040.87 438.39 1024.44 458.55L995.41 494.15C995.41 494.15 982.09 478.17 965.57 460.23L915.85 498.95C929.17 525.23 952.52 565.1 981.11 573.18 1015.74 582.95 1059.25 537.66 1059.25 537.66L1074.34 601.59H1177.34L1195.99 619.35C1231.6 617.57 1245.89 593.78 1240.48 558.97Z" fill="#ffa0dc" opacity="1" stroke-width="4" stroke="none"></path><path d="M986.26 483.41L983.69 509.42 995.41 494.15C995.41 494.15 991.86 489.89 986.26 483.41Z" fill="#5a2c49" opacity="0.2" stroke-width="4" stroke="none"></path><path d="M1059.25 537.66L1066.53 568.47 1073.63 522.92 1059.25 537.66Z" fill="#5a2c49" opacity="0.2" stroke-width="4" stroke="none"></path><path d="M1213.83 616.07C1201.93 602.22 1194.12 576.38 1189.86 543.97L1178.76 601.16 1196.07 619.36C1202.73 619 1208.68 617.94 1213.83 616.07Z" fill="#5a2c49" opacity="0.2" stroke-width="4" stroke="none"></path><path d="M1179.2 601.59L1194.3 519.9" stroke="#3d2032" stroke-width="4" stroke-linecap="round" stroke-linejoin="round" opacity="1" fill="none"></path><path d="M1199.62 571.4L1186.75 565.45" stroke="#3d2032" stroke-width="4" stroke-linecap="round" stroke-linejoin="round" opacity="1" fill="none"></path><path d="M1059.33 537.66L1075.84 520.61" stroke="#3d2032" stroke-width="4" stroke-linecap="round" stroke-linejoin="round" opacity="1" fill="none"></path><path d="M995.41 494.15L983.69 509.42" stroke="#3d2032" stroke-width="4" stroke-linecap="round" stroke-linejoin="round" opacity="1" fill="none"></path><path d="M873.75 415.13C880.86 415.13 891.51 416.9 895.95 419.57" stroke="#000000" stroke-width="4" stroke-linecap="round" stroke-linejoin="round" opacity="1" fill="none"></path><path d="M871.09 428.45C878.19 427.56 892.4 433.77 892.4 433.77" stroke="#000000" stroke-width="4" stroke-linecap="round" stroke-linejoin="round" opacity="1" fill="none"></path><path d="M867.54 441.76C871.98 440.88 881.74 442.65 887.96 447.09" stroke="#000000" stroke-width="4" stroke-linecap="round" stroke-linejoin="round" opacity="1" fill="none"></path><path d="M884.41 463.07L878.19 455.97" stroke="#000000" stroke-width="4" stroke-linecap="round" stroke-linejoin="round" opacity="1" fill="none"></path><path d="M1169.88 366.73C1172.54 352.53 1171.03 333.79 1155.05 319.58 1139.07 305.38 1120.6 292.59 1100.17 300.58 1080.91 308.13 1076.11 324.11 1068.21 347.64 1068.21 347.64 1059.33 348.53 1058.44 352.08 1057.46 355.9 1062.88 362.74 1062.88 362.74 1056.67 382.27 1056.67 392.93 1063.33 402.25 1070.34 412.11 1088.19 412.91 1097.07 409.35L1095.65 417.79H1160.29C1163.66 400.65 1168.37 374.9 1169.88 366.73Z" fill="#e5bb98" opacity="1" stroke-width="4" stroke="none"></path><path d="M1097.08 409.35L1096.01 415.48 1108.62 404.74 1097.08 409.35Z" fill="#151414" opacity="0.2" stroke-width="4" stroke="none"></path><path d="M1069.1 375.17C1071.76 376.06 1077.09 375.52 1078.86 371.97" stroke="#000000" stroke-width="4" stroke-linecap="round" stroke-linejoin="round" opacity="1" fill="none"></path><path d="M1080.2 353.68C1081.82 353.68 1083.13 352.38 1083.13 350.75 1083.13 349.14 1081.82 347.82 1080.2 347.82 1078.58 347.82 1077.27 349.14 1077.27 350.75 1077.27 352.38 1078.58 353.68 1080.2 353.68Z" fill="#171314" opacity="1" stroke-width="4" stroke="none"></path><path d="M1097.07 409.35C1101.51 407.58 1107.63 405.18 1107.63 405.18" stroke="#000000" stroke-width="4" stroke-linecap="round" stroke-linejoin="round" opacity="1" fill="none"></path><path d="M1117.93 375.17L1126.81 369.84" stroke="#000000" stroke-width="4" stroke-linecap="round" stroke-linejoin="round" opacity="1" fill="none"></path><path d="M1252.91 462.19C1274.22 405.36 1226.27 361.85 1168.02 376.95 1168.82 372.59 1169.44 368.95 1169.89 366.73 1172.37 353.59 1177.43 328.64 1165.53 313.72 1184.63 325.45 1212.06 318.87 1229.02 297.65 1247.14 275.01 1246.43 244.38 1227.33 229.1 1208.24 213.83 1178.23 219.87 1160.12 242.51 1143.87 262.76 1142.8 289.57 1156.48 305.82 1140.5 295.43 1118.3 293.48 1100.18 300.49 1089.62 304.58 1083.4 311.33 1078.7 320.38 1078.7 320.38 1087.75 332.46 1104.62 327.13 1098.41 337.79 1101.07 354.66 1109.06 361.76 1109.06 361.76 1135.7 343.12 1143.69 361.76 1151.06 379.08 1122.38 393.73 1122.38 393.73 1118.83 407.05 1118.83 495.84 1209.4 466.54 1209.4 466.54 1221.83 490.51 1234.26 531.36 1274.22 531.45 1291.09 483.5 1252.91 462.19Z" fill="#171314" opacity="1" stroke-width="4" stroke="none"></path><path d="M1114.91 388.67L1110.21 417.52C1109.59 421.16 1112.07 424.54 1115.71 425.16 1116.51 425.34 1117.4 425.25 1118.2 425.07L1138.27 420.72C1141.82 419.92 1144.13 416.37 1143.33 412.82 1143.15 412.02 1142.79 411.22 1142.35 410.51L1126.1 386.27C1124.24 383.43 1120.42 382.72 1117.58 384.58 1116.16 385.47 1115.18 386.98 1114.91 388.67Z" fill="#231f20" opacity="1" stroke-width="4" stroke="none"></path><path d="M1184.71 972.66H1091.83C1095.73 992.73 1096.44 1008.97 1095.82 1021.49L1113.94 1072.28 1177.96 1051.68C1182.66 1025.58 1185.33 999.12 1184.71 972.66Z" fill="#ffa0dc" opacity="1" stroke-width="4" stroke="none"></path><path d="M1184.54 970.08C1181.87 899.05 1168.55 882.18 1165.89 832.45 1165.36 821.18 1165.45 809.99 1166.16 798.71H1066.26C1067.42 812.48 1068.93 826.77 1070.88 841.33 1078.78 899.58 1087.13 942.56 1092.1 974.52H1184.71C1184.63 973.01 1184.63 971.59 1184.54 970.08Z" fill="#e5bb98" opacity="1" stroke-width="4" stroke="none"></path><path d="M1166.16 798.71H1084.56C1084.56 798.71 1143.43 818.34 1165.62 826.06 1165.53 822.69 1165.53 819.31 1165.53 815.94 1165.53 810.17 1165.8 804.48 1166.16 798.71Z" fill="#151414" opacity="0.2" stroke-width="4" stroke="none"></path><path d="M1042.82 1095.19H1167.13C1167.13 1095.19 1169.09 1089.78 1171.66 1080.1H1049.84C1046.11 1084.36 1043.71 1089.6 1042.82 1095.19Z" fill="#000000" opacity="1" stroke-width="4" stroke="none"></path><path d="M1130.99 1055.86L1117.14 1065.62C1115.46 1066.78 1113.06 1066.42 1111.9 1064.74 1111.19 1063.67 1111.02 1062.43 1111.46 1061.19L1121.14 1036.77C1123.45 1031 1120.61 1024.51 1114.83 1022.29 1113.5 1021.76 1112.17 1021.49 1110.75 1021.49H1095.83C1095.12 1035.7 1091.22 1045.47 1082.78 1052.57 1069.46 1063.76 1057.21 1071.13 1049.84 1080.1L1171.66 1080.19C1173.62 1072.91 1175.92 1063.23 1177.97 1051.68H1144.22C1139.52 1051.68 1134.9 1053.1 1130.99 1055.86Z" fill="#61ccff" opacity="1" stroke-width="4" stroke="none"></path><path d="M1358.3 924.09C1327.32 860.07 1303.25 848.88 1280.88 804.4 1279.99 802.62 1279.28 800.49 1278.48 798.71H1173.35C1182.23 816.47 1191.91 834.32 1202.56 851.81 1233.73 902.87 1258.95 939.27 1276.35 966.8L1360.97 929.77C1360.08 927.91 1359.19 925.95 1358.3 924.09Z" fill="#e5bb98" opacity="1" stroke-width="4" stroke="none"></path><path d="M1289.31 819.58C1286.47 814.87 1283.72 809.9 1280.88 804.4 1279.99 802.62 1279.28 800.49 1278.48 798.71H1203.54L1289.31 819.58Z" fill="#151414" opacity="0.2" stroke-width="4" stroke="none"></path><path d="M1279.71 1078.06C1277.85 1083.65 1277.67 1089.6 1279.18 1095.37L1393.01 1045.47C1393.01 1045.47 1392.48 1039.16 1390.88 1029.04L1279.71 1078.06Z" fill="#000000" opacity="1" stroke-width="4" stroke="none"></path><path d="M1334.51 1044.05L1385.48 1000.99C1379.53 975.86 1370.91 951.45 1360.08 928L1275.46 965.03C1285.94 981.64 1293.66 994.95 1298.01 1006.32L1334.51 1044.05Z" fill="#ffa0dc" opacity="1" stroke-width="4" stroke="none"></path><path d="M1356.7 1013.5C1352.35 1015.37 1348.71 1018.56 1346.31 1022.65L1337.52 1037.21C1336.45 1038.99 1334.14 1039.61 1332.37 1038.54 1331.3 1037.92 1330.59 1036.77 1330.5 1035.44L1329.62 1009.15C1329.44 1003.03 1324.2 998.14 1318.07 998.41 1316.65 998.5 1315.32 998.76 1313.99 999.3L1298.01 1006.31C1303.16 1019.72 1303.6 1030.37 1298.63 1040.23 1291.08 1055.5 1283 1067.05 1279.71 1078.06L1391.24 1030.64C1390.08 1023.27 1388.13 1012.35 1385.47 1000.98L1356.7 1013.5Z" fill="#61ccff" opacity="1" stroke-width="4" stroke="none"></path><path d="M1234.25 668.19C1211.61 620.95 1178.93 599.82 1178.93 599.82H1073.89C1073.89 599.82 1056.67 684.26 1066.26 800.49L1280.16 802.89C1260.09 760.09 1256.01 713.56 1234.25 668.19Z" fill="#3c2c5b" opacity="1" stroke-width="4" stroke="none"></path><path d="M1101.87 599.82C1101.87 599.82 1092.55 705.3 1110.04 800.49" stroke="#000000" stroke-width="4" stroke-linecap="round" stroke-linejoin="round" opacity="1" fill="none"></path><path d="M1077.45 1053.46L1088.11 1064.12" stroke="#000000" stroke-width="4" stroke-linecap="round" stroke-linejoin="round" opacity="1" fill="none"></path><path d="M1292.94 1043.69L1306.97 1049.2" stroke="#000000" stroke-width="4" stroke-linecap="round" stroke-linejoin="round" opacity="1" fill="none"></path></g></svg>