<svg xmlns="http://www.w3.org/2000/svg" height="1200" width="1600" version="1.1" xmlns:xlink="http://www.w3.org/1999/xlink" xmlns:svgjs="http://svgjs.com/svgjs"><rect fill="#f3ebe9" width="1600" height="1200"></rect><g><path d="M270.02 452.58L243.34 400.19 287.78 430.85 303.33 378.82 311.65 435.27 357.34 405.72 330.08 454.57 370.61 466.14 323.52 474.99 335.38 524.95 301.12 487.66 280.26 530.62 279.16 477.86 225.8 485.38 270.02 452.58Z" fill="#ffc930" opacity="1" stroke-width="4" stroke="none"></path></g><g><path d="M580.62 666.14C560.88 666.14 544.8 650.06 544.8 630.31V328.48C544.8 308.74 560.88 292.66 580.62 292.66H1019.71C1039.46 292.66 1055.54 308.74 1055.54 328.48V630.31C1055.54 650.06 1039.46 666.14 1019.71 666.14H580.62Z" fill="#ffffff" opacity="1" stroke-width="4" stroke="none"></path><path d="M853.27 659.93L954.53 528.37 993.51 506.76C993.51 506.76 1046.09 497.4 1047.03 497.48L1047.2 625.29C1047.2 644.44 1031.63 659.93 1012.57 659.93H853.27Z" fill="#ffc930" opacity="1" stroke-width="4" stroke="none"></path><path d="M853.27 659.93L934.02 555.09 988.91 659.93H853.27Z" fill="#c18f00" opacity="0.2" stroke-width="4" stroke="none"></path><path d="M1044.22 530.67C1032.56 530.67 1026.61 526.84 1020.91 523.1 1015.2 519.44 1009.33 515.61 997.76 515.61 986.19 515.61 980.32 519.44 974.61 523.1 969.17 526.58 963.64 530.24 953.26 530.67H952.66L1021.33 441.83C1026.78 434.77 1035.37 430.51 1044.31 430.51 1045.24 430.51 1046.18 430.6 1047.12 430.68H1047.29V530.67H1047.12C1045.92 530.67 1045.07 530.67 1044.22 530.67Z" fill="#efdcd7" opacity="1" stroke-width="4" stroke="none"></path><path d="M587.86 659.93C568.71 659.93 553.22 644.35 553.22 625.29V551.69L623.34 460.55 763.24 459.61 917.35 659.84H587.86V659.93Z" fill="#ffc930" opacity="1" stroke-width="4" stroke="none"></path><path d="M632.53 659.93L801.87 509.9 917.35 659.93H632.53Z" fill="#c18f00" opacity="0.2" stroke-width="4" stroke="none"></path><path d="M693.63 488.12C681.97 488.12 676.02 484.29 670.32 480.55 664.61 476.89 658.74 473.06 647.17 473.06 635.6 473.06 629.72 476.89 624.02 480.55 618.58 484.04 613.05 487.7 602.66 488.12H602.15L670.74 399.28C672.27 397.32 674.06 395.54 676.02 394.01 681.12 390.09 687.25 387.96 693.72 387.96 702.82 387.96 711.25 392.13 716.78 399.28L785.19 488.12H784.85C774.47 487.7 768.86 484.12 763.49 480.55 757.79 476.89 751.92 473.06 740.35 473.06 728.78 473.06 722.9 476.89 717.2 480.55 711.25 484.29 705.29 488.12 693.63 488.12Z" fill="#efdcd7" opacity="1" stroke-width="4" stroke="none"></path><path d="M698.57 659.93L787.92 543.86 890.54 541.47 981.68 659.93H698.57Z" fill="#ffc930" opacity="1" stroke-width="4" stroke="none"></path><path d="M840.34 564.37C830.89 564.37 826.04 561.22 821.44 558.24 816.85 555.26 812.08 552.2 802.72 552.2 793.36 552.2 788.6 555.26 784 558.24 780.85 560.28 777.79 562.49 773.11 563.6L772.6 563.68 821.27 500.29C822.55 498.67 824 497.23 825.61 495.95 829.78 492.72 834.72 491.01 840 491.01 847.4 491.01 854.21 494.33 858.72 500.2L907.22 563.17 906.71 563C902.8 561.81 899.9 559.94 897.01 558.07 892.41 555.09 887.65 552.03 878.29 552.03 868.93 552.03 864.16 555.09 859.57 558.07 854.63 561.22 849.87 564.37 840.34 564.37Z" fill="#efdcd7" opacity="1" stroke-width="4" stroke="none"></path><path d="M553.56 423.36V389.07L553.65 388.98C555.61 387.71 557.65 386.6 559.78 385.75 563.35 384.3 567.18 383.62 571.01 383.62 583.69 383.62 594.92 391.2 599.6 403.02 601.39 402.34 603.26 402 605.13 402 607 402 608.79 402.34 610.49 402.94 614.49 404.39 617.73 407.28 619.51 411.11 621.3 414.94 621.56 419.28 620.11 423.28V423.36H553.56V423.36Z" fill="#ffc930" opacity="1" stroke-width="4" stroke="none"></path><path d="M891.56 477.82C891.56 477.82 891.56 477.31 891.56 477.23 891.56 465.14 901.35 455.36 913.43 455.36 915.47 455.36 917.43 455.61 919.39 456.21 924.49 448.72 932.92 444.3 942.02 444.3 947.55 444.3 952.83 445.91 957.43 449.06 966.79 455.44 971.21 466.68 968.74 477.74V477.91H891.56V477.82Z" fill="#ffc930" opacity="1" stroke-width="4" stroke="none"></path><path d="M981.68 477.82V477.65C981.68 469.14 988.65 462.17 997.16 462.17 1005.67 462.17 1012.65 469.14 1012.65 477.65V477.82H981.68Z" fill="#ffc930" opacity="1" stroke-width="4" stroke="none"></path><path d="M766.47 391.03V390.6C766.47 390.52 766.47 390.35 766.47 390.26 766.47 387.45 766.9 384.73 767.66 382.01 771.32 369.33 783.07 360.48 796.17 360.48 798.89 360.48 801.62 360.82 804.25 361.58 809.1 354.44 816.42 349.25 824.76 346.86 828.08 345.93 831.57 345.42 834.97 345.42 851.4 345.42 866.12 356.39 870.71 372.22 873.78 370.6 877.18 369.75 880.58 369.75 892.16 369.75 901.6 379.2 901.6 390.77V390.94L766.47 391.03Z" fill="#ffc930" opacity="1" stroke-width="4" stroke="none"></path><path d="M773.28 563.34L698.91 659.76" stroke="#000000" stroke-width="4" stroke-linecap="round" stroke-linejoin="round" opacity="1" fill="none"></path><path d="M917.43 576.79L981.34 659.76" stroke="#000000" stroke-width="4" stroke-linecap="round" stroke-linejoin="round" opacity="1" fill="none"></path><path d="M587.86 680.35C557.48 680.35 532.8 655.59 532.8 625.29V333.42C532.8 303.04 557.56 278.36 587.86 278.36H1012.48C1042.86 278.36 1067.54 303.12 1067.54 333.42V625.21C1067.54 655.59 1042.78 680.26 1012.48 680.26L587.86 680.35ZM587.86 299.12C568.97 299.12 553.56 314.53 553.56 333.42V625.21C553.56 644.1 568.97 659.5 587.86 659.5H1012.48C1031.37 659.5 1046.77 644.1 1046.77 625.21V333.42C1046.77 314.53 1031.37 299.12 1012.48 299.12H587.86Z" fill="#efdcd7" opacity="1" stroke-width="4" stroke="none"></path></g><g><path d="M459.87 714.58C454.3 709.73 450.57 700.84 450.33 691.78 450.17 684.55 452 673.98 461.93 664.45 466.46 660.08 470.27 656.82 473.69 653.88 482.43 646.49 487.67 641.96 490.61 630.37L522.23 636.32V705.13L459.87 714.58Z" fill="#eec072" opacity="1" stroke-width="4" stroke="none"></path><path d="M553.85 705.2V636.4L585.39 630.37C588.33 641.96 593.57 646.41 602.31 653.88 605.73 656.82 609.62 660.08 614.07 664.45 624 673.98 625.83 684.55 625.67 691.78 625.43 700.84 621.7 709.73 616.14 714.58L553.85 705.2Z" fill="#eec072" opacity="1" stroke-width="4" stroke="none"></path><path d="M458.04 1003.61V916.93C495.3 924.64 526.92 934.57 527.24 934.65 527.4 934.41 548.29 913.75 562.03 913.75 567.6 913.75 577.13 924.96 586.27 935.76 591.19 941.64 595.96 947.12 599.93 950.94 605.17 955.78 612.48 960.87 619.63 965.79 628.61 971.99 637.03 977.87 641.72 983.43 648.31 991.29 650.78 996.46 649.27 999.64 648.08 1002.26 644.26 1003.53 637.83 1003.53L458.04 1003.61Z" fill="#e3a2a1" opacity="1" stroke-width="4" stroke="none"></path><path d="M473.77 851.07L468.68 820.24 607.24 820.17 602.16 851.07H473.77Z" fill="#e3a2a1" opacity="1" stroke-width="4" stroke="none"></path><path d="M849.55 940.92C847.09 940.92 846.38 940.92 841.21 937.83 841.21 937.83 838.43 939.34 833.58 939.34 829.06 939.34 824.37 938.06 819.52 935.52 816.82 934.09 809.91 930.76 800.3 926.07 768.12 910.42 708.22 881.34 690.34 868.23 677.47 858.86 654.67 837.25 637.75 820.8L686.77 772.89 686.93 773.05C697.09 785.61 705.12 795.46 709.81 799.35 724.82 811.9 780.43 853.37 795.69 858.94 797.6 859.65 801.49 860.76 806.49 862.19 824.45 867.44 854.48 876.1 854.48 882.13 854.48 887.06 847.73 888.09 842.09 888.09 837.95 888.09 834.38 887.54 834.3 887.54 834.7 887.7 871.48 909.3 873.79 919.24 874.34 921.54 874.1 923.29 873.15 924.48 871.88 926.07 869.73 926.23 868.86 926.23 868.54 926.23 868.38 926.23 868.38 926.23 868.46 926.23 872.36 931.71 869.97 935.52 868.62 937.67 866.63 938.78 863.93 938.78 860.68 938.78 857.58 937.11 857.58 937.11 857.58 937.11 855.99 941 849.87 941L849.55 940.92Z" fill="#e3a2a1" opacity="1" stroke-width="4" stroke="none"></path><path d="M226.21 940.92C220.09 940.92 218.5 937.11 218.42 937.03 218.42 937.03 215.33 938.7 212.07 938.7 209.37 938.7 207.38 937.59 206.03 935.44 203.73 931.79 207.3 926.54 207.54 926.15 207.46 926.15 207.3 926.15 207.06 926.15 206.19 926.15 203.97 925.99 202.77 924.4 201.82 923.21 201.58 921.46 202.14 919.16 204.44 909.23 240.91 887.85 241.62 887.46 241.46 887.54 237.89 888.09 233.92 888.09 228.28 888.09 221.52 887.06 221.52 882.13 221.52 876.1 251.55 867.36 269.51 862.19 274.51 860.76 278.41 859.57 280.31 858.94 295.57 853.37 351.1 811.9 366.2 799.35 370.88 795.46 378.91 785.61 389 773.05L438.02 820.88C421.17 837.33 398.37 858.86 385.5 868.23 367.63 881.34 307.72 910.42 275.55 926.07 265.93 930.76 258.94 934.09 256.32 935.52 251.48 938.06 246.79 939.34 242.26 939.34 237.49 939.34 234.63 937.83 234.63 937.83 229.47 940.92 228.75 940.92 226.29 940.92H226.21V940.92Z" fill="#e3a2a1" opacity="1" stroke-width="4" stroke="none"></path><path d="M388.52 773.69L389 773.05C409.02 748.42 436.43 714.74 457.56 703.38 463.6 700.28 472.02 697.58 478.69 696.07L488.86 731.26C494.58 751.2 511.03 765.27 531.76 765.27H544C564.74 765.27 583.25 751.36 589.05 731.42L599.14 696.47C605.89 697.98 612.4 700.28 618.52 703.46 639.65 714.82 666.9 748.42 686.85 772.97L637.83 820.88C623.21 806.66 611.61 794.98 611.53 794.82L607.32 820.32H468.84L464.63 794.74C464.55 794.9 451.05 808.17 436.43 822.47L388.52 773.69Z" fill="#ffc930" opacity="1" stroke-width="4" stroke="none"></path><path d="M460.26 767.57L451.28 808.01 451.36 807.93C459.23 800.14 464.47 794.74 464.55 794.74L460.26 767.57Z" fill="#252114" opacity="0.25" stroke-width="4" stroke="none"></path><path d="M624.64 807.93C616.77 800.14 611.45 794.74 611.45 794.74L615.74 767.57 624.64 807.93Z" fill="#252114" opacity="0.25" stroke-width="4" stroke="none"></path><path d="M563.38 692.57V670.41C569.34 665.64 574.11 659.44 576.73 652.45 577.84 649.51 578.8 646.1 579.59 642.28 586.82 640.14 604.22 633.07 602.63 615.67 602 608.6 595.32 604.86 589.05 604.86 586.74 604.86 584.52 605.34 582.53 606.29 582.13 599.7 581.26 593.66 579.59 589.05 574.27 573.96 558.7 564.98 537.96 564.98 517.23 564.98 501.65 573.96 496.33 589.05 494.66 593.66 493.71 599.7 493.39 606.29 491.33 605.42 489.1 604.94 486.8 604.94 480.52 604.94 473.85 608.6 473.21 615.75 471.62 633.31 489.18 640.3 496.33 642.36 497.13 646.1 498.08 649.51 499.19 652.45 501.81 659.52 506.66 665.8 512.7 670.57V692.57C512.14 692.57 511.59 692.57 511.03 692.57 499.43 692.57 487.83 693.92 476.55 696.55L486.64 731.42C492.36 751.36 510.71 765.98 531.53 765.98L532.16 766.06H543.84C564.58 766.06 583.33 751.44 589.05 731.5L599.3 696.47C588.09 693.84 576.49 692.57 564.97 692.57 564.42 692.57 563.94 692.57 563.38 692.57Z" fill="#e3a2a1" opacity="1" stroke-width="4" stroke="none"></path><path d="M527.87 679.94C531.13 680.89 534.55 681.37 537.96 681.37 546.54 681.37 555.84 676.37 563.38 670.41" stroke="#7a4746" stroke-width="4" stroke-linecap="round" stroke-linejoin="round" opacity="1" fill="none"></path><path d="M782.98 935.13C778.93 921.86 767.96 909.94 753.82 903.19 741.27 897.15 717.91 890.4 691.45 885.07 669.61 880.62 635.68 875.22 598.26 874.35L602.23 850.36H473.69L477.66 874.35C440.24 875.22 406.32 880.7 384.39 885.07 357.93 890.4 334.66 897.15 322.02 903.19 307.88 909.94 297 921.86 292.87 935.13 289.45 946.01 290.8 957.05 296.6 967.22 296.76 967.46 296.92 967.62 297.08 967.86 311.38 991.93 348 1003.61 408.86 1003.61V1003.53H458.12V985.34C483.3 985.97 510.31 986.37 537.96 986.37 565.69 986.37 588.09 979.54 613.36 978.82L617.33 1003.61H617.81L667.06 1003.77C728.48 1003.77 765.18 991.85 779.24 967.38 779.88 966.35 780.36 965.24 780.75 964.12 785.2 954.83 786 944.82 782.98 935.13Z" fill="#ffffff" opacity="1" stroke-width="4" stroke="none"></path><path d="M490.06 940.69C482.35 940.69 474.32 938.94 466.3 935.52 443.02 925.67 433.81 895.24 441.67 876.57 454.07 875.38 466.14 874.59 477.66 874.35L473.69 850.36H538.76C539.39 861.32 534.7 869.03 530.57 875.78 526.84 881.98 523.26 887.85 524.3 895.24 526.6 912.01 526.36 922.57 518.89 930.04 516.43 932.58 506.98 940.69 490.06 940.69Z" fill="#61ccff" opacity="1" stroke-width="4" stroke="none"></path><path d="M578.32 940.37C570.06 940.37 561.32 933.38 555.92 922.57 549.8 910.34 551.55 900.8 555.2 895.96 558.3 891.83 566.17 887.7 574.98 887.7 581.1 887.7 586.66 889.76 591.03 893.65 597.55 899.53 601.12 909.15 600.01 918.12 598.98 926.78 593.81 934.09 585.47 938.54 583.25 939.73 580.86 940.37 578.32 940.37Z" fill="#61ccff" opacity="1" stroke-width="4" stroke="none"></path><path d="M641.72 912.32C637.03 909.07 633.38 904.46 630.99 898.9 627.98 891.75 627.34 883.48 629.41 876.1 650.62 877.92 671.99 881.1 692.8 885.31 695.11 893.42 691.69 901.92 687.16 908.11" fill="#61ccff" opacity="1" stroke-width="4" stroke="none"></path><path d="M677.95 1003.45C673.34 993.36 673.58 977.55 675.17 969.53 677.47 958.09 688.83 932.9 707.58 932.9 708.61 932.9 709.73 932.98 710.76 933.14 720.69 934.65 724.74 945.61 728.24 955.3 730.38 961.18 732.37 966.75 735.47 969.53 737.93 971.75 742.06 973.5 746.43 975.33 752.47 977.87 758.67 980.49 762 984.86 744.21 996.46 716.72 1002.5 677.95 1003.45Z" fill="#61ccff" opacity="1" stroke-width="4" stroke="none"></path><path d="M617.89 916.93C634.25 913.44 650.94 910.73 667.54 908.91 671.43 917.73 671.04 931.87 663.57 939.34 659.6 943.31 655.62 945.37 651.73 947.36 646.73 949.9 641.96 952.37 637.75 958.72 637.11 959.67 636.56 960.63 635.92 961.66 632.11 967.86 627.74 974.93 617.97 975.4V916.93H617.89Z" fill="#61ccff" opacity="1" stroke-width="4" stroke="none"></path><path d="M408.54 1003.61C397.58 1003.61 387.09 1003.21 377.56 1002.42 370.73 986.69 368.26 966.98 381.93 958.72 385.9 956.34 390.03 955.15 394.56 955.15 398.45 955.15 402.11 955.94 405.76 956.73 409.26 957.53 412.51 958.24 415.85 958.24 420.62 958.24 424.59 956.66 428.4 953.32 433.41 948.87 445.41 941.88 458.12 940.77V1003.61H408.54Z" fill="#61ccff" opacity="1" stroke-width="4" stroke="none"></path><path d="M438.18 1003.61C431.82 1003.61 428.01 1002.26 426.74 999.72 425.23 996.46 427.61 991.29 434.28 983.51 438.97 977.95 447.39 972.15 456.37 965.87 463.44 960.95 470.83 955.86 476.07 951.01 480.12 947.28 484.81 941.72 489.74 935.84 498.95 925.04 508.41 913.83 513.97 913.83 527.71 913.83 548.61 934.49 548.77 934.73 549.08 934.65 580.7 924.8 617.89 917.01V1003.61H438.18Z" fill="#e3a2a1" opacity="1" stroke-width="4" stroke="none"></path><path d="M577.45 926.62C560.45 931.15 548.77 934.73 548.77 934.73 545.67 931.71 541.3 928.05 537.96 925.35" stroke="#0f171a" stroke-width="4" stroke-linecap="round" stroke-linejoin="round" opacity="1" fill="none"></path><path d="M546.07 874.43L600.65 860.37 598.34 874.35 546.07 874.43Z" fill="#0f171a" opacity="0.25" stroke-width="4" stroke="none"></path><path d="M497.76 926.54C490.45 934.81 481.95 945.61 475.75 951.33 471.23 955.62 464.79 959.99 458.59 964.36" stroke="#0f171a" stroke-width="4" stroke-linecap="round" stroke-linejoin="round" opacity="1" fill="none"></path><path d="M408.46 934.17C402.19 934.17 396.7 931.23 392.73 925.67 389.32 920.9 387.17 915.98 386.61 909.07 399.17 909.3 413.47 910.66 429.99 913.28 427.29 922.57 422.13 932.58 411.32 933.93 410.37 934.09 409.42 934.17 408.46 934.17Z" fill="#61ccff" opacity="1" stroke-width="4" stroke="none"></path><path d="M345.22 954.35C336.96 954.35 331.72 949.03 327.03 944.26 323.77 940.92 320.99 938.06 317.73 937.75 317.42 937.75 317.18 937.75 316.86 937.75 313.84 937.75 310.66 939.1 306.93 940.69 302.48 942.59 297.47 944.74 291.12 945.22 291.91 928.29 304.07 911.77 322.1 903.19 330.37 899.22 343.71 894.85 359.6 890.71 366.51 917.49 371.2 945.77 354.12 952.52 350.94 953.8 348 954.35 345.22 954.35Z" fill="#61ccff" opacity="1" stroke-width="4" stroke="none"></path><path d="M477.66 874.35H491.49" stroke="#0f171a" stroke-width="4" stroke-linecap="round" stroke-linejoin="round" opacity="1" fill="none"></path><path d="M569.98 874.35H598.34" stroke="#0f171a" stroke-width="4" stroke-linecap="round" stroke-linejoin="round" opacity="1" fill="none"></path><path d="M699.64 909.15C675.48 905.73 645.14 911.29 617.89 916.93" stroke="#0f171a" stroke-width="4" stroke-linecap="round" stroke-linejoin="round" opacity="1" fill="none"></path><path d="M376.52 909.15C400.6 908.19 463.04 914.55 493.31 931.71" stroke="#0f171a" stroke-width="4" stroke-linecap="round" stroke-linejoin="round" opacity="1" fill="none"></path><path d="M611.53 794.82L613.44 782.27" stroke="#252114" stroke-width="4" stroke-linecap="round" stroke-linejoin="round" opacity="1" fill="none"></path><path d="M464.63 794.74L462.49 781.63" stroke="#252114" stroke-width="4" stroke-linecap="round" stroke-linejoin="round" opacity="1" fill="none"></path><path d="M834.22 887.54C828.58 887.14 823.02 886.34 817.46 885.23 817.46 885.23 800.22 896.2 784.88 893.81" stroke="#7a4746" stroke-width="4" stroke-linecap="round" stroke-linejoin="round" opacity="1" fill="none"></path><path d="M869.1 927.26C865.2 920.27 829.85 897.55 829.85 897.55" stroke="#7a4746" stroke-width="4" stroke-linecap="round" stroke-linejoin="round" opacity="1" fill="none"></path><path d="M858.53 937.03C857.02 927.74 833.03 912.24 822.94 906.84" stroke="#7a4746" stroke-width="4" stroke-linecap="round" stroke-linejoin="round" opacity="1" fill="none"></path><path d="M841.21 937.83C843.83 932.42 829.14 923.92 815.15 916.14" stroke="#7a4746" stroke-width="4" stroke-linecap="round" stroke-linejoin="round" opacity="1" fill="none"></path><path d="M241.31 887.54C246.95 887.14 252.51 886.34 258.07 885.23 258.07 885.23 275.31 896.2 290.64 893.81" stroke="#7a4746" stroke-width="4" stroke-linecap="round" stroke-linejoin="round" opacity="1" fill="none"></path><path d="M206.98 925.43C210.88 918.44 245.68 897.55 245.68 897.55" stroke="#7a4746" stroke-width="4" stroke-linecap="round" stroke-linejoin="round" opacity="1" fill="none"></path><path d="M217.07 937.03C218.58 927.74 242.58 912.24 252.67 906.84" stroke="#7a4746" stroke-width="4" stroke-linecap="round" stroke-linejoin="round" opacity="1" fill="none"></path><path d="M234.39 937.83C231.77 932.42 246.47 923.92 260.45 916.14" stroke="#7a4746" stroke-width="4" stroke-linecap="round" stroke-linejoin="round" opacity="1" fill="none"></path><path d="M538.44 622.9C538.44 622.9 540.58 628.54 540.5 630.37 540.42 632.19 539.15 633.07 537.8 633.78" stroke="#7a4746" stroke-width="4" stroke-linecap="round" stroke-linejoin="round" opacity="1" fill="none"></path><path d="M531.29 642.28C534.39 646.18 542.89 646.18 545.99 642.28" stroke="#7a4746" stroke-width="4" stroke-linecap="round" stroke-linejoin="round" opacity="1" fill="none"></path><path d="M512.7 620.59C515 623.45 521.2 623.45 523.5 620.59" stroke="#7a4746" stroke-width="4" stroke-linecap="round" stroke-linejoin="round" opacity="1" fill="none"></path><path d="M553.69 620.59C556 623.45 562.19 623.45 564.5 620.59" stroke="#7a4746" stroke-width="4" stroke-linecap="round" stroke-linejoin="round" opacity="1" fill="none"></path><path d="M583.09 626L590.79 621.39" stroke="#7a4746" stroke-width="4" stroke-linecap="round" stroke-linejoin="round" opacity="1" fill="none"></path><path d="M492.6 626L484.81 621.39" stroke="#7a4746" stroke-width="4" stroke-linecap="round" stroke-linejoin="round" opacity="1" fill="none"></path><path d="M579.51 589.05C574.9 575.94 562.59 567.52 545.91 565.46 551.94 561.8 556.16 554.33 556.16 547.18 556.16 537.25 548.05 529.15 538.12 529.15 528.19 529.15 520.09 537.25 520.09 547.18 520.09 554.26 524.14 561.72 530.02 565.46 513.25 567.44 500.86 575.94 496.25 589.05 493.71 596.12 492.68 607.01 493.31 619.56 503.88 618.13 513.81 612.81 522.07 604.07 529.06 596.76 534.7 587.15 537.88 577.14 541.14 587.15 546.78 596.68 553.77 604.07 562.03 612.81 571.97 618.13 582.53 619.56 583.09 606.93 582.05 596.12 579.51 589.05Z" fill="#eec072" opacity="1" stroke-width="4" stroke="none"></path></g><g><path d="M1238.2 1008.3C1238.2 1008.3 1236.21 1001.66 1233.88 990.35L1353.18 990.08C1355.35 992.53 1356.92 995.44 1357.79 998.61 1358.64 1001.77 1358.76 1005.09 1358.13 1008.3H1238.2V1008.3Z" fill="#231f20" opacity="1" stroke-width="4" stroke="none"></path><path d="M1233.88 990.36C1229.71 969.86 1226.92 949.1 1225.51 928.23H1307.31C1307.31 929.09 1307.22 929.87 1307.22 930.64 1306.79 951.7 1322.32 963.6 1336.04 974.22 1342.95 979.57 1349.17 984.68 1353.48 990.55L1233.88 990.36H1233.88Z" fill="#ffffff" opacity="1" stroke-width="4" stroke="none"></path><path d="M1224.39 892.01C1224.74 841.44 1242.34 798.11 1242.51 797.68 1242.51 797.68 1233.8 798.8 1220.08 800.1 1200.58 801.91 1170.81 804.06 1139.31 804.06 1103.94 804.06 1074.77 801.3 1052.6 795.95L1099.19 690.69C1099.28 690.69 1102.82 690.6 1108.94 690.6 1127.32 690.6 1174.86 691.03 1219.99 695.35 1275.56 700.7 1308.95 709.84 1319.22 722.53 1344.67 754.02 1328.62 824.95 1316.89 876.72 1315.68 881.98 1314.55 887.1 1313.43 891.92L1224.39 892.01Z" fill="#61ccff" opacity="1" stroke-width="4" stroke="none"></path><path d="M1227.84 852.64C1233.02 820.89 1242.42 797.85 1242.51 797.68L1267.88 794.49 1227.84 852.64V852.64Z" fill="#1f4f66" opacity="0.25" stroke-width="4" stroke="none"></path><path d="M1139.31 804.15C1103.94 804.15 1074.77 801.39 1052.68 796.04L1086.59 729.77C1086.77 730.12 1099.19 763.94 1142.16 804.15H1139.31Z" fill="#1f4f66" opacity="0.25" stroke-width="4" stroke="none"></path><path d="M1225.57 928.74C1224.8 917.17 1224.3 904.93 1224.3 893.46L1224.39 891.99 1313.44 891.9C1310.59 905.1 1307.77 919.75 1307.25 929.33L1225.57 928.74Z" fill="#c6edff" opacity="1" stroke-width="4" stroke="none"></path><path d="M707.11 899.84C716.35 889.92 734.29 874.89 765.79 859.01L819.38 923.15C800.31 929.28 789.77 935.04 786.84 940.31 781.23 950.66 782.87 964.47 784.17 975.6 784.77 980.69 785.29 985.18 785.12 988.63 785.01 990.03 784.81 991.43 784.53 992.81V992.81L707.11 899.84Z" fill="#ffffff" opacity="1" stroke-width="4" stroke="none"></path><path d="M1082.02 517.51L1080.55 512.34C1080.47 511.65 1071.06 445.72 1071.93 433.64 1073.22 415.44 1084.95 402.75 1103.25 399.65 1108.32 398.78 1113.45 398.31 1118.61 398.27 1136.47 398.27 1152.17 404.39 1158.56 413.88 1163.13 421.05 1165.72 429.85 1168.56 442.7 1168.56 442.7 1173.83 444.26 1176.42 446.24 1177.22 446.79 1177.78 447.62 1177.97 448.57 1178.49 452.37 1172.62 458.49 1172.62 458.58 1178.06 484.03 1175.55 491.8 1168.65 497.93 1165.6 500.42 1162.03 502.21 1158.21 503.19 1156.42 503.57 1154.6 503.74 1152.77 503.71V503.71C1148.28 503.59 1143.8 503.07 1139.4 502.15 1139.88 507.38 1140.98 512.54 1142.68 517.51H1082.02V517.51Z" fill="#dd957f" opacity="1" stroke-width="4" stroke="none"></path><path d="M1127.15 497.67L1139.49 502.07C1139.79 505.17 1140.31 508.26 1141.04 511.3V511.39L1127.15 497.67Z" fill="#181818" opacity="0.25" stroke-width="4" stroke="none"></path><path d="M1080.55 512.34C1080.47 511.65 1071.06 445.72 1071.93 433.64 1073.22 415.44 1084.95 402.75 1103.25 399.65 1108.32 398.78 1113.45 398.31 1118.61 398.27 1136.47 398.27 1152.17 404.39 1158.56 413.88 1159.76 415.77 1160.83 417.72 1161.75 419.75 1161.66 419.84 1153.72 426.4 1133.96 426.4 1131.72 426.4 1129.48 426.31 1128.15 426.47 1127.23 426.31 1134.05 444.43 1128.87 457.51 1128.7 457.98 1116.71 450.99 1106.01 450.99 1100.57 450.99 1096.34 452.8 1093.5 456.34 1083.32 469.11 1107.04 491.45 1107.3 491.71 1100.49 514.75 1082.19 517.6 1082.02 517.6L1080.55 512.34Z" fill="#181818" opacity="1" stroke-width="4" stroke="none"></path><path d="M1139.4 502.15C1135.6 500.86 1131.89 499.65 1128.61 497.32" stroke="#000000" stroke-width="4" stroke-linecap="round" stroke-linejoin="round" opacity="1" fill="none"></path><path d="M1163.04 469.19C1160.8 471.18 1156.4 469.71 1154.85 466.69" stroke="#000000" stroke-width="4" stroke-linecap="round" stroke-linejoin="round" opacity="1" fill="none"></path><path d="M1120.25 473.51L1110.24 467.55" stroke="#000000" stroke-width="4" stroke-linecap="round" stroke-linejoin="round" opacity="1" fill="none"></path><path d="M1040 430.37C1039.57 419.49 1038.71 409.05 1037.33 398.44 1033.18 367.38 1028.18 342.44 1025.16 327.43 1023.87 320.87 1022.92 316.12 1022.66 313.88 1021.45 306.72 1019.55 298.61 1018.08 292.65 1017.48 290.07 1016.96 287.82 1016.62 286.27 1016.01 283.25 1015.32 280.32 1014.81 277.56 1009.37 252.1 1006.18 236.83 1009.37 232.86 1009.64 232.52 1009.97 232.25 1010.36 232.07 1010.76 231.88 1011.18 231.81 1011.61 231.82 1014.72 231.82 1018.86 235.53 1023.95 242.87 1023.69 226.3 1024.04 214.22 1025.16 203.61 1025.94 195.84 1030.77 194.64 1033.62 194.64 1034.17 194.64 1034.72 194.69 1035.25 194.81 1037.41 192.22 1039.48 190.93 1041.47 190.93 1045.44 190.93 1047.51 196.45 1047.51 196.45 1048.57 195.77 1049.79 195.39 1051.04 195.33 1058.12 195.33 1060.36 209.39 1060.45 209.74 1060.75 209.2 1061.19 208.76 1061.73 208.46 1062.25 208.16 1062.86 208 1063.47 208.01 1064.58 208.06 1065.66 208.42 1066.58 209.04 1073.31 213.36 1086.68 275.92 1082.45 300.85 1082.71 301.63 1110.06 378.16 1113.52 426.83 1113.6 427.95 1113.58 430.54 1113.58 430.54L1040 430.28V430.37Z" fill="#dd957f" opacity="1" stroke-width="4" stroke="none"></path><path d="M1056.06 682.72C1055.89 681.68 1040 574.72 1038.27 522.69 1037.58 509.66 1038.36 496.29 1039.05 482.14 1039.91 466.17 1040.77 449.48 1039.99 430.24L1113.62 430.32C1115.95 496.85 1115.07 517.34 1115.07 517.51L1142.68 517.51C1144.66 523.64 1147.34 530.02 1150.19 536.75 1156.74 552.89 1164.25 571.1 1165.2 590.85 1168.56 659.88 1136.12 719.44 1136.12 719.44L1135.41 719.12 1056.06 682.72Z" fill="#ff9edd" opacity="1" stroke-width="4" stroke="none"></path><path d="M765.15 859.36C769.81 856.95 775.19 854.2 780.54 851.78 787.19 848.76 794.09 845.91 800.99 843.32L859.43 912.48C841.92 916.88 828.22 920.32 818.3 923.51L765.15 859.36Z" fill="#c6edff" opacity="1" stroke-width="4" stroke="none"></path><path d="M800.91 843.35C838.02 829.2 869.24 823.82 892.02 819.85 906.43 817.35 916.79 815.54 923.08 812.52 932.06 808.21 944.57 798.46 969.68 758.16 983.31 736.24 1019.12 684.73 1056.39 680.5L1138.37 715.02C1094.71 815.71 1003.42 870.42 956.3 886.81 936.03 893.89 908.5 900.53 881.93 907 874.33 908.81 866.57 910.71 859.15 912.61L800.91 843.35Z" fill="#61ccff" opacity="1" stroke-width="4" stroke="none"></path><path d="M1082.71 801.13C1082.71 801.13 1090.64 791.57 1099.61 780.01" stroke="#143341" stroke-width="4" stroke-linecap="round" stroke-linejoin="round" opacity="1" fill="none"></path><path d="M1242.34 797.69L1265.98 794.5" stroke="#143341" stroke-width="4" stroke-linecap="round" stroke-linejoin="round" opacity="1" fill="none"></path><path d="M1225.51 928.23H1307.31" stroke="#143341" stroke-width="4" stroke-linecap="round" stroke-linejoin="round" opacity="1" fill="none"></path><path d="M765.62 859.05L819.03 923.11" stroke="#143341" stroke-width="4" stroke-linecap="round" stroke-linejoin="round" opacity="1" fill="none"></path><path d="M1312.66 950.06L1297.04 958.08" stroke="#575757" stroke-width="4" stroke-linecap="round" stroke-linejoin="round" opacity="1" fill="none"></path><path d="M1319.05 958.34L1307.83 970.42" stroke="#575757" stroke-width="4" stroke-linecap="round" stroke-linejoin="round" opacity="1" fill="none"></path><path d="M792.36 936.86L778.56 925.64" stroke="#575757" stroke-width="4" stroke-linecap="round" stroke-linejoin="round" opacity="1" fill="none"></path><path d="M785.46 945.66L770.79 942.03" stroke="#575757" stroke-width="4" stroke-linecap="round" stroke-linejoin="round" opacity="1" fill="none"></path><path d="M1157.35 447.62C1158.78 447.62 1159.94 446.47 1159.94 445.03 1159.94 443.6 1158.78 442.45 1157.35 442.45 1155.92 442.45 1154.76 443.6 1154.76 445.03 1154.76 446.47 1155.92 447.62 1157.35 447.62Z" fill="#181818" opacity="1" stroke-width="4" stroke="none"></path><path d="M831.71 879.48C858.8 873.01 937.32 854.89 964.07 840.22 1006.44 817.01 1057.26 717.69 1096.26 697.85" stroke="#143341" stroke-width="4" stroke-linecap="round" stroke-linejoin="round" opacity="1" fill="none"></path><path d="M1122.83 746.17C1122.83 746.17 1282.63 735.04 1292.81 763.42 1301.44 787.58 1280.73 854.02 1278.92 891.21" stroke="#143341" stroke-width="4" stroke-linecap="round" stroke-linejoin="round" opacity="1" fill="none"></path><path d="M1018.17 699.57C1007.3 708.63 996.25 720.71 985.3 735.38 988.08 736.38 990.94 737.19 993.84 737.8 996.54 738.37 999.28 738.66 1002.04 738.66H1002.55C1005.33 738.71 1008.09 738.33 1010.75 737.54 1015.62 736.02 1020.22 733.75 1024.38 730.81 1027.92 728.34 1031.16 725.48 1034.05 722.27 1036.97 719.05 1039.57 715.54 1041.81 711.83V711.83L1018.17 699.57Z" fill="#1f4f66" opacity="1" stroke-width="4" stroke="none"></path><path d="M1023.83 242.5C1023.66 247.85 1025.19 260.97 1025.28 265.63" stroke="#000000" stroke-width="4" stroke-linecap="round" stroke-linejoin="round" opacity="1" fill="none"></path><path d="M1035.17 194.81C1035.17 194.81 1035.34 230.18 1035.69 253.48" stroke="#000000" stroke-width="4" stroke-linecap="round" stroke-linejoin="round" opacity="1" fill="none"></path><path d="M1047.42 196.53L1049.66 252.27" stroke="#000000" stroke-width="4" stroke-linecap="round" stroke-linejoin="round" opacity="1" fill="none"></path><path d="M1060.36 209.91L1063.3 254.34" stroke="#000000" stroke-width="4" stroke-linecap="round" stroke-linejoin="round" opacity="1" fill="none"></path><path d="M1067.61 430.37V684.91" stroke="#000000" stroke-width="4" stroke-linecap="round" stroke-linejoin="round" opacity="1" fill="none"></path><path d="M1128.87 517.51V710.79" stroke="#000000" stroke-width="4" stroke-linecap="round" stroke-linejoin="round" opacity="1" fill="none"></path><path d="M1165.11 604.66H1046.04" stroke="#000000" stroke-width="4" stroke-linecap="round" stroke-linejoin="round" opacity="1" fill="none"></path><path d="M1156.48 665.92H1054.67" stroke="#000000" stroke-width="4" stroke-linecap="round" stroke-linejoin="round" opacity="1" fill="none"></path><path d="M1153.03 543.4H1040" stroke="#000000" stroke-width="4" stroke-linecap="round" stroke-linejoin="round" opacity="1" fill="none"></path><path d="M1115.07 482.14H1039.05" stroke="#000000" stroke-width="4" stroke-linecap="round" stroke-linejoin="round" opacity="1" fill="none"></path><path d="M1115.07 517.51C1114.21 526.14 1114.06 535.58 1115.78 542.48" stroke="#000000" stroke-width="4" stroke-linecap="round" stroke-linejoin="round" opacity="1" fill="none"></path><path d="M1138.37 715.1L1056.39 680.59" stroke="#143341" stroke-width="4" stroke-linecap="round" stroke-linejoin="round" opacity="1" fill="none"></path><path d="M696.16 914.42C696.16 914.34 698.85 908.72 707.13 899.83L784.62 992.68C783.76 1000.71 773.81 1008.21 773.81 1008.21L696.16 914.42Z" fill="#231f20" opacity="1" stroke-width="4" stroke="none"></path></g><g><path d="M304.23 1006.35H1290.07" stroke="#231f20" stroke-width="4" stroke-linecap="round" stroke-linejoin="round" opacity="1" fill="none"></path></g></svg>