<svg xmlns="http://www.w3.org/2000/svg" width="1307.223" height="856.768" viewBox="0 0 1307.223 856.768">
  <g id="people-collaborating" transform="translate(-189.07 -191.198)">
    <g id="Group_5" data-name="Group 5">
      <path id="Path_7" data-name="Path 7" d="M450.57,341.05c83.46-20.45,237.6,66.15,349.8,55.09,112.9-11.12,183.16-119.85,260.31-140.46s160.45,46.25,181.42,127.57c21.03,82-20.95,178.52-70.11,248.41-48.53,69.14-104.24,111.65-161.51,152.21-57.22,41.25-116.75,79.9-211.55,114.61-94.86,34.01-224.98,64.08-306.6,16.63-82.31-47.4-116.06-171.61-126.3-298.56C355.17,490.37,367.18,362.21,450.57,341.05Z" fill="#efdcd7"/>
    </g>
    <g id="Group_6" data-name="Group 6">
      <path id="Path_8" data-name="Path 8" d="M805.17,911.22l-39.9,134.26" fill="none" stroke="#231f20" stroke-linecap="round" stroke-linejoin="round" stroke-width="4"/>
      <path id="Path_9" data-name="Path 9" d="M766.93,889.96,718.02,954.7" fill="none" stroke="#231f20" stroke-linecap="round" stroke-linejoin="round" stroke-width="4"/>
    </g>
    <g id="Group_7" data-name="Group 7">
      <path id="Path_10" data-name="Path 10" d="M851.67,259.2l15.28-65.6" fill="none" stroke="#231f20" stroke-linecap="round" stroke-linejoin="round" stroke-width="4"/>
      <path id="Path_11" data-name="Path 11" d="M870.06,330.26l68.05-80.39" fill="none" stroke="#231f20" stroke-linecap="round" stroke-linejoin="round" stroke-width="4"/>
    </g>
    <g id="Group_8" data-name="Group 8">
      <path id="Path_12" data-name="Path 12" d="M362.69,448.47H658.93a62.711,62.711,0,0,1,62.72,62.71V805.89a62.711,62.711,0,0,1-62.72,62.71H362.69a62.7,62.7,0,0,1-62.71-62.71V511.18A62.7,62.7,0,0,1,362.69,448.47Z" fill="#ff9edd"/>
      <path id="Path_13" data-name="Path 13" d="M404.17,504.34l-48.18,48.18" fill="none" stroke="#000" stroke-linecap="round" stroke-linejoin="round" stroke-width="4"/>
      <path id="Path_14" data-name="Path 14" d="M404.17,552.52l-48.18-48.18" fill="none" stroke="#000" stroke-linecap="round" stroke-linejoin="round" stroke-width="4"/>
    </g>
    <g id="Group_9" data-name="Group 9">
      <path id="Path_15" data-name="Path 15" d="M1287.71,367.11H935.14a43.139,43.139,0,0,0-43.18,43.18V741.54a43.145,43.145,0,0,0,43.18,43.18h352.57a43.145,43.145,0,0,0,43.18-43.18V410.29A43.19,43.19,0,0,0,1287.71,367.11Z" fill="#ffc930"/>
      <path id="Path_16" data-name="Path 16" d="M939.17,443.78a17.755,17.755,0,1,0-17.75-17.76A17.75,17.75,0,0,0,939.17,443.78Z" fill="#f3ebe9"/>
      <path id="Path_17" data-name="Path 17" d="M990.72,443.78a17.755,17.755,0,1,0-17.75-17.76A17.758,17.758,0,0,0,990.72,443.78Z" fill="#f3ebe9"/>
      <path id="Path_18" data-name="Path 18" d="M1042.35,443.78a17.755,17.755,0,1,0-17.75-17.76A17.758,17.758,0,0,0,1042.35,443.78Z" fill="#f3ebe9"/>
    </g>
    <g id="Group_10" data-name="Group 10">
      <path id="Path_19" data-name="Path 19" d="M739.63,749.58h0c1.74-.29,35.36-5.21,53.43-15.75,2.61-1.54,5.32-3.09,7.92-4.44,13.73-7.73,26.67-15.07,28.03-21.94a6.263,6.263,0,0,0-1.55-5.31v-.1c.19-.38,1.93-3.38.48-5.99-1.25-2.32-4.73-3.57-10.34-3.67h-.38c-6.48,0-14.5,2.22-23.1,4.45-9.95,2.7-21.25,5.79-31.59,5.79a44.7,44.7,0,0,1-6.28-.38c-.1,0-.1-.1-.1-.2,1.55-1.45,14.11-14.68,13.72-21.35a3.551,3.551,0,0,0-1.35-2.71,5.187,5.187,0,0,0-3.29-1.06c-4.64,0-11.5,4.16-18.07,8.31-4.63,2.8-9.47,5.8-13.33,7.25-1.93.67-3.87,1.35-5.8,2.03-9.08,3.09-18.45,6.37-28.02,14.39-5.99,5.03-18.65,23.48-22.32,29.96v.09l25.12,23,31.79,8.7C734.8,770.94,739.63,749.58,739.63,749.58Z" fill="#ae805a"/>
      <path id="Path_20" data-name="Path 20" d="M655.66,875.1c19.42,0,36.23-9.76,49.76-29.08,12.37-17.49,22.13-42.81,29.38-75.08v-.1l-56.92-31.69h-.09c-10.34,16.91-16.33,27.25-21.16,35.65,0,.1-.1.1-.1.2-2.71,4.73-5.22,8.79-7.63,12.75,0,.1-.1.1-.2,0-1.45-2.51-20.87-37.1-38.45-57.49-34.31-40.39-71.41-42.52-78.46-42.52h-.78V656.05c0-.1,0-.1-.09-.1H457.67c-.09,0-.09,0-.09.1.19,3.29.09,23.67,0,32.56,0,.1,0,.1-.1.1a28.3,28.3,0,0,0-3.28-.1c-10.83,0-38.94,3.09-67.06,32.08-5.8,5.9-11.11,11.98-15.75,17.01v.1l26.09,91.5c0,.1.09.1.19,0l15.85-18.17c.09-.09.19,0,.19.1l7.34,57.11a.092.092,0,0,0,.1.09l123.87-2.03,3.87-.09,8.31-24.16,5.8-32.37c0-.1.09-.1.19,0a291.084,291.084,0,0,0,18.94,22.8c.48.49.87.97,1.35,1.45,10.53,11.31,26.09,26,42.42,34.6C636.24,872.78,646.38,875.1,655.66,875.1Z" fill="#ffc930"/>
      <path id="Path_21" data-name="Path 21" d="M656.43,775.29c0-.1-.09-.1-.19,0-.77,1.35-4.54,7.92-7.54,12.65v.1l10.53,18.17c.1.09.2,0,.2-.1Z" fill="#0f0d07" opacity="0.2"/>
      <path id="Path_22" data-name="Path 22" d="M566.76,782.73l-3.96,26.86v.09a302.03,302.03,0,0,0,20.1,24.16c.1.1.19,0,.19-.1l-16.04-51.01A.178.178,0,0,0,566.76,782.73Z" fill="#0f0d07" opacity="0.2"/>
      <path id="Path_23" data-name="Path 23" d="M538.65,709l-73.15-1.93a.092.092,0,0,0-.1.09l37.49,99.14c0,.1.2.1.2,0l35.65-97.2Z" fill="#f6f4ef"/>
      <path id="Path_24" data-name="Path 24" d="M552.46,868.24l4.45-25.9c0-.09,0-.09-.1-.09H417.67a.092.092,0,0,0-.1.09l3.29,25.9a.1.1,0,0,0,.1.1l131.5-.1Z" fill="#0f0d07"/>
      <path id="Path_25" data-name="Path 25" d="M462.31,1040.33c2.22,0,3.67-.1,3.96-.1,0,0,.1,0,.1-.09.39-3.29,10.63-102.04,12.56-171.8s4.93-176.73,5.03-180.5c0-.1,0-.1-.1-.1l-26.19.87a32.371,32.371,0,0,0-3.38-.09,79.551,79.551,0,0,0-26.86,4.92c-11.98,4.35-26.09,12.28-40.29,26.87-5.8,5.89-10.83,11.4-15.37,16.42,0,0-.09.1-.19.2l5.41,34.2,20.87,57.59v.1l-48.31,172.76v.1C397.67,1037.53,447.91,1040.33,462.31,1040.33Z" fill="#fe4f32"/>
      <path id="Path_26" data-name="Path 26" d="M537.2,681.08c8.31,0,20.19-6.77,24.93-9.96.29-.19.58-.38.87-.58,20-13.81,11.69-37.1,7.53-51.98-.77-2.9-3.28-12.66-3.96-16.52-1.16-6.67-2.41-14.69-5.51-22.9-1.16-3.1-7.82-8.22-7.92-8.31-.19-.1-26.28-14.5-34.88-14.5-8.7,0-18.17-3.09-34.5,4.64-13.52,6.38-26.18,20-26.18,48.22v55.85c0,.09,0,.09.09.09l55.85,6.19C513.72,671.12,522.9,681.08,537.2,681.08Z" fill="#ae805a"/>
      <path id="Path_27" data-name="Path 27" d="M508.6,595.95c34.59-2.51,48.4-12.08,52.46-16.81v-.1a78.312,78.312,0,0,0-4.15-9.37c-5.12-9.47-13.92-15.27-22.23-18.56L517,549.09s-18.16-.78-34.49,6.95c-7.15,3.38-16.24,9.38-19.81,19.23v.1C463.37,576.43,477.87,598.07,508.6,595.95Z" fill="#231f20"/>
      <path id="Path_28" data-name="Path 28" d="M438.93,647.84c7.25-11.79,10.34-22.03,11.21-38.07,1.35-27.74,5.41-44.26,27.54-54.21a84.508,84.508,0,0,1,39.61-7.83,58.263,58.263,0,0,1,17.39,3.48c.1,0,.1.1,0,.19-1.64,1.45-19.42,18.07-23.09,38.17-1.84,9.76-.19,19.81,1.55,30.44,2.12,12.27,4.44,34.69,1.45,50.34,0,0,0,.1.09.1a56.516,56.516,0,0,0,18.75,4.92,77.905,77.905,0,0,0,9.27.49c11.79-.58,18.75-4.54,20.2-5.32h.1a37.588,37.588,0,0,1,2.31,19.72c-1.25,7.24-5.02,15.75-14.1,23.67a42.206,42.206,0,0,1-5.51,3.67,52.67,52.67,0,0,1-25.9,6.38c-24.83,0-51.79-14.11-67.25-35.27h-.09c-6.38-.68-23.87,4.25-25.13,4.64C422.12,675.37,430.23,662.14,438.93,647.84Z" fill="#fe4f32"/>
      <path id="Path_29" data-name="Path 29" d="M542.7,675.86c11.89-.58,18.75-4.54,20.2-5.32h.1a36.449,36.449,0,0,1,2.31,19.43l-.09.09a43.647,43.647,0,0,1-18.07-3.96c-9.37-4.44-13.05-9.86-13.63-10.82A89.312,89.312,0,0,0,542.7,675.86Z" opacity="0.2"/>
      <path id="Path_30" data-name="Path 30" d="M435.35,691.32c2.03-5.41,4.64-9.86,9.67-17.01,0-.09.19-.09.19,0a48.7,48.7,0,0,0,7.34,14.21c15.46,21.16,42.42,35.26,67.25,35.26a53.174,53.174,0,0,0,25.42-6.08c.09-.1.19.09.09.09-7.24,8.6-20.09,18.36-41.16,18.36-1.74,0-3.48-.09-5.22-.09-33.53-2.32-48.7-31.6-54.3-46.58l-.1-.09c-2.99.48-6.08,1.25-9.18,1.93C435.26,691.41,435.35,691.51,435.35,691.32Z" opacity="0.2"/>
      <path id="Path_31" data-name="Path 31" d="M487.92,992.98a1.725,1.725,0,0,0,.67-.09,2.173,2.173,0,0,0,1.55-1.36c2.22-4.92-5.6-21.25-7.15-24.25,0-.1.1-.19.19-.1,2.42,2.13,16.04,13.73,24.74,18.94,3.28,1.94,6.18,3,8.7,3,5.99,0,7.53-5.99,7.82-6.77,0-.09.1-.09.1-.09a12.938,12.938,0,0,0,4.15.67,9.145,9.145,0,0,0,7.73-3.57,8.08,8.08,0,0,0,.58-7.63v-.1a6.12,6.12,0,0,0,3.1-5.51c.67-13.24-24.93-41.64-36.05-49.47-13.14-9.47-44.44-17.1-45.41-17.39-3.67-3.87-8.79-9.28-14.69-16.14h-.09l-24.84,20.77-18.45,29.19v.09c12.27,8.99,22.61,15.66,27.34,18.26,8.51,4.74,20.49,7.25,31.89,9.28a.1.1,0,0,1,.1.1C460.57,962.26,479.99,992.98,487.92,992.98Z" fill="#ae805a"/>
      <path id="Path_32" data-name="Path 32" d="M443.86,882.93c-19.81-22.32-45.61-53.53-46.09-54.21l-11.31-39.81-14.69-51.89c0-.09-.09-.09-.19,0-40.1,44.45-56.91,79.91-51.11,108.22,7.53,31.7,58.36,72.09,80,87.93l43.39-49.95C443.95,883.02,443.95,883.02,443.86,882.93Z" fill="#ffc930"/>
      <path id="Path_33" data-name="Path 33" d="M562.8,809.68l4.06-27.34" fill="none" stroke="#0f0d07" stroke-linecap="round" stroke-linejoin="round" stroke-width="4"/>
      <path id="Path_34" data-name="Path 34" d="M648.8,787.94l10.72,18.65" fill="none" stroke="#0f0d07" stroke-linecap="round" stroke-linejoin="round" stroke-width="4"/>
      <path id="Path_35" data-name="Path 35" d="M397.77,828.72l-11.6-12.56" fill="none" stroke="#0f0d07" stroke-linecap="round" stroke-linejoin="round" stroke-width="4"/>
      <path id="Path_36" data-name="Path 36" d="M524.35,982.35l-36.72-37.68" fill="none" stroke="#151413" stroke-linecap="round" stroke-linejoin="round" stroke-width="4"/>
      <path id="Path_37" data-name="Path 37" d="M536.81,971.73l-38.55-39.72" fill="none" stroke="#151413" stroke-linecap="round" stroke-linejoin="round" stroke-width="4"/>
      <path id="Path_38" data-name="Path 38" d="M482.7,966.8l-8.5-10.34" fill="none" stroke="#151413" stroke-linecap="round" stroke-linejoin="round" stroke-width="4"/>
      <path id="Path_39" data-name="Path 39" d="M827.46,702.04c-6.57-1.45-13.53-2.8-23.19.1s-19.23,6.86-25.99,7.83" fill="none" stroke="#151413" stroke-linecap="round" stroke-linejoin="round" stroke-width="4"/>
      <path id="Path_40" data-name="Path 40" d="M824.37,713.54c-6.86-4.35-14.01-2.12-20.87.2-4.35,1.54-20,8.79-31.6,8.79s-36.91-12.66-54.3-3.96" fill="none" stroke="#151413" stroke-linecap="round" stroke-linejoin="round" stroke-width="4"/>
      <path id="Path_41" data-name="Path 41" d="M757.5,702.43a71.534,71.534,0,0,0-12.85.19" fill="none" stroke="#151413" stroke-linecap="round" stroke-linejoin="round" stroke-width="4"/>
      <path id="Path_42" data-name="Path 42" d="M548.41,619.24s1.73,2.89,1.73,5.12a3.485,3.485,0,0,1-1.73,2.61" fill="none" stroke="#151413" stroke-linecap="round" stroke-linejoin="round" stroke-width="4"/>
      <path id="Path_43" data-name="Path 43" d="M530.92,611.99c-2.61,0-4.45,2.9-2.42,5.7,2.8,1.93,5.7.19,5.7-2.42A3.139,3.139,0,0,0,530.92,611.99Z" fill="#231f20"/>
      <path id="Path_44" data-name="Path 44" d="M550.34,639.43c-4.83,1.45-8.12-.39-9.66-2.9" fill="none" stroke="#151413" stroke-linecap="round" stroke-linejoin="round" stroke-width="4"/>
      <path id="Path_45" data-name="Path 45" d="M452.17,688.52c-9.57.96-14.69,2.22-24.74,4.92" fill="none" stroke="#000" stroke-linecap="round" stroke-linejoin="round" stroke-width="4"/>
      <path id="Path_46" data-name="Path 46" d="M483.09,714.51a86.9,86.9,0,0,1-30.25-25.61,83.148,83.148,0,0,1-7.63-14.49" fill="none" stroke="#000" stroke-linecap="round" stroke-linejoin="round" stroke-width="4"/>
      <path id="Path_47" data-name="Path 47" d="M514.59,670.16a48.757,48.757,0,0,1-7.64,15.17" fill="none" stroke="#000" stroke-linecap="round" stroke-linejoin="round" stroke-width="4"/>
      <path id="Path_48" data-name="Path 48" d="M559.32,608.32c-2.61,0-4.44,2.9-2.41,5.7,2.8,1.93,5.7.19,5.7-2.42A3.141,3.141,0,0,0,559.32,608.32Z" fill="#231f20"/>
    </g>
    <g id="Group_11" data-name="Group 11">
      <path id="Path_49" data-name="Path 49" d="M1156.65,608.92q14.115,0,14.12-8.99c0-7.06.75-18.29,1.6-31.45,1.93-29.21,4.39-65.48.54-82.06-5.78-24.28-31.03-32.95-52.64-32.95a83.445,83.445,0,0,0-24.28,3.53c-23.43,7.06-28.03,25.68-33.27,47.18-.64,2.78-1.39,5.56-2.04,8.34-1.17.22-8.98,1.72-9.62,4.93-.86,4.17,4.7,9.52,5.45,10.27-3.96,22.89-.21,37.23,11.88,45.04a32.366,32.366,0,0,0,18.08,5.56,59.231,59.231,0,0,0,15.19-2.46l-.96,18.72.1.11C1101.34,594.9,1136.54,608.92,1156.65,608.92Z" fill="#e59763"/>
      <path id="Path_50" data-name="Path 50" d="M1017.36,660.38c.32-.75,32.73-73.93,35.62-79.6a51.945,51.945,0,0,0,3.75-8.67c.32-1.39.74-3.1.1-4.38-.96-2.14-3.85-1.39-5.56-.86-5.78,1.93-10.59,6.1-15.3,9.84-1.82,1.39-3.53,2.89-5.45,4.18-1.5.96-3.43,2.14-5.03.85-2.14-1.71-.75-4.81.42-6.63a28.539,28.539,0,0,1,6.96-6.95,71.271,71.271,0,0,1,11.45-6.53c5.13-2.46,8.77-4.17,8.77-7.49,0-7.7-15.62-5.35-20.01-4.81-8.77,1.17-17.54,3.53-25.25,8.02a46.9,46.9,0,0,0-18.61,19.58c-9.95,20-11.77,23.43-24.29,46.43l-.32,4.06,52.75,33.38v-.42Z" fill="#e59763"/>
      <path id="Path_51" data-name="Path 51" d="M1224.8,799.67c7.59-.11,27.71-6.1,34.55-34.13,3.32-14.76.97-35.95-6.74-61.19a334.4,334.4,0,0,0-27.92-64.73c-20.11-35.3-50.28-46.54-52.85-47.39l-.11-8.78-70.61.11-.74,8.02c-38.73,1.72-65.69,29.32-65.91,29.53-.1.11-12.83,13.91-21.29,24.5l-48.03-22.57c-14.98,27.28-46,93.61-9.1,119.82a47.88,47.88,0,0,0,28.14,8.56c34.24,0,70.93-29.96,74.57-32.95l11.23,65.79,121.53.11C1196.98,795.17,1213.03,799.77,1224.8,799.67Z" fill="#fe4f32"/>
      <path id="Path_52" data-name="Path 52" d="M1198.59,736.76c11.01,7.81,12.62,23.32,15.94,36.16,2.88,11.13,6.95,17.97,10.16,26.75-11.66.1-27.82-4.5-33.27-15.3l6.74-47.82Z" fill="#505050" opacity="0.2"/>
      <path id="Path_53" data-name="Path 53" d="M1069.99,784.26l-11.23-65.79,15.62-12.95,33.7,78.74Z" fill="#505050" opacity="0.2"/>
      <path id="Path_54" data-name="Path 54" d="M1173.55,485.35c-5.88-24.5-31.34-33.27-53.17-33.27a84.441,84.441,0,0,0-24.5,3.53c-18.29,5.56-24.5,18.72-28.46,30.38a18.928,18.928,0,0,0,10.81,3.32,21.476,21.476,0,0,0,12.62-4.39c-1.6,10.38-.75,17.76,2.57,21.61,1.93,2.36,4.71,3.53,8.45,3.53,5.46,0,10.92-2.67,12.63-3.53-1.29,3.21-7.28,19.9,3.53,26.75l.1.11.11-.11c.11-.11,13.8-11.34,25.57-11.34a13.54,13.54,0,0,1,10.81,4.81,13.2,13.2,0,0,1,3.1,9.85c-1.07,11.87-15.94,24.28-16.16,24.39l-.21.21.21.22c9.63,7.59,31.14,8.13,31.14,8.13S1179.22,504.5,1173.55,485.35Z" fill="#010005"/>
      <path id="Path_55" data-name="Path 55" d="M1066.14,538.63l10.27.32" fill="none" stroke="#000" stroke-linecap="round" stroke-linejoin="round" stroke-width="4"/>
      <path id="Path_56" data-name="Path 56" d="M1073.52,519.37a2.995,2.995,0,1,1,3-2.99A2.992,2.992,0,0,1,1073.52,519.37Z" fill="#010005"/>
      <path id="Path_57" data-name="Path 57" d="M1058.44,718.79c7.59-5.89,14.33-12.63,21.18-19.26" fill="none" stroke="#4d4d4d" stroke-linecap="round" stroke-linejoin="round" stroke-width="4"/>
      <path id="Path_58" data-name="Path 58" d="M1013.83,644.76l-20.87,25.78" fill="none" stroke="#4d4d4d" stroke-linecap="round" stroke-linejoin="round" stroke-width="4"/>
      <path id="Path_59" data-name="Path 59" d="M1191.95,782.87l10.7-74.89" fill="none" stroke="#4d4d4d" stroke-linecap="round" stroke-linejoin="round" stroke-width="4"/>
      <path id="Path_60" data-name="Path 60" d="M1100.8,576.07c8.56-3.42,14.98-6.42,14.98-6.42" fill="none" stroke="#000" stroke-linecap="round" stroke-linejoin="round" stroke-width="4"/>
      <path id="Path_61" data-name="Path 61" d="M1129.58,549.01l8.88-6.85" fill="none" stroke="#000" stroke-linecap="round" stroke-linejoin="round" stroke-width="4"/>
    </g>
    <g id="Group_12" data-name="Group 12">
      <path id="Path_62" data-name="Path 62" d="M812.32,328.71l-89.11,17.34,30.1,154.75,125.5-24.41L855.79,358.03Z" fill="#61ccff"/>
      <path id="Path_63" data-name="Path 63" d="M829.54,372.59l26.25-14.56-38.9-18.52Z" opacity="0.3"/>
      <path id="Path_64" data-name="Path 64" d="M819.4,365.11l36.39-7.08-43.47-29.32Z" fill="#fe4f32"/>
      <path id="Path_65" data-name="Path 65" d="M782.93,400.79l-26.87,5.23,5.22,26.87,26.87-5.23Z" fill="#a6ddf8" opacity="0.3"/>
      <path id="Path_66" data-name="Path 66" d="M774.58,357.87l-26.87,5.23,5.22,26.86,26.87-5.22Z" fill="#a6ddf8" opacity="0.3"/>
      <path id="Path_67" data-name="Path 67" d="M791.27,443.71l-26.86,5.23,5.22,26.87,26.87-5.23Z" fill="#a6ddf8" opacity="0.3"/>
      <path id="Path_68" data-name="Path 68" d="M782.93,400.79l-26.87,5.23,5.22,26.87,26.87-5.23Z" fill="none" stroke="#000" stroke-linecap="round" stroke-linejoin="round" stroke-width="4"/>
      <path id="Path_69" data-name="Path 69" d="M778.94,408.8l-6.6,15.44-8-5.78" fill="none" stroke="#000" stroke-linecap="round" stroke-linejoin="round" stroke-width="4"/>
      <path id="Path_70" data-name="Path 70" d="M774.58,357.87l-26.87,5.23,5.22,26.86,26.87-5.22Z" fill="none" stroke="#000" stroke-linecap="round" stroke-linejoin="round" stroke-width="4"/>
      <path id="Path_71" data-name="Path 71" d="M791.27,443.71l-26.86,5.23,5.22,26.87,26.87-5.23Z" fill="none" stroke="#000" stroke-linecap="round" stroke-linejoin="round" stroke-width="4"/>
    </g>
    <g id="Group_13" data-name="Group 13">
      <path id="Path_72" data-name="Path 72" d="M886.81,989.89l-37.14,26.38,15.56-41.36-41.38-6.95,37.3-18.95-15.67-35.6,37.24,20.24,19.96-42.32,6.65,45.23,46.89-5.8L920.8,958.17,950.9,981l-40.2.12.85,43.35Z" fill="none" stroke="#61ccff" stroke-linecap="round" stroke-linejoin="round" stroke-width="4"/>
    </g>
    <g id="Group_14" data-name="Group 14">
      <path id="Path_73" data-name="Path 73" d="M640.85,313.89l-17.83,13.32,6.77-20.9-20.87-2.61,19-10.31-10.14-20.4,20.79,11.23,8.05-17.06,5.52,19.9,21.23-7.66-15.44,18.5,18.67,12.68-22.4.08.31,21.57Z" fill="none" stroke="#ffc930" stroke-linecap="round" stroke-linejoin="round" stroke-width="4"/>
    </g>
    <g id="Group_15" data-name="Group 15">
      <path id="Path_74" data-name="Path 74" d="M225.35,653.07l18.48-14.55-6.96,21.73,21.52,2.52L239.64,673.5l8.99,17.96-19.72-9.48-9.21,22.33-4.59-23.15-24.04,4.19,17.57-15.04L192.53,659.3l20.73-1.09-1.55-22.34Z" fill="none" stroke="#61ccff" stroke-linecap="round" stroke-linejoin="round" stroke-width="4"/>
    </g>
    <g id="Group_16" data-name="Group 16">
      <path id="Path_75" data-name="Path 75" d="M1397.22,498.78l9.66-21.35,6.43,21.92,26.39-11.3-15.73,23.3,19.88,13.17-25.91,1.91,3.32,25.04-17.97-17.73-16.69,13.11,3.59-20.48-23-1.81,20.65-13.34-11.57-21.89Z" fill="none" stroke="#ff9edd" stroke-linecap="round" stroke-linejoin="round" stroke-width="4"/>
    </g>
    <g id="Group_17" data-name="Group 17">
      <path id="Path_76" data-name="Path 76" d="M1324.33,621.92l92.52,22.57" fill="none" stroke="#231f20" stroke-linecap="round" stroke-linejoin="round" stroke-width="4"/>
      <path id="Path_77" data-name="Path 77" d="M1386.68,683.5l106.85,68.55" fill="none" stroke="#231f20" stroke-linecap="round" stroke-linejoin="round" stroke-width="4"/>
    </g>
    <g id="Group_18" data-name="Group 18">
      <path id="Path_78" data-name="Path 78" d="M300.06,425.14l-53.52-44.21" fill="none" stroke="#231f20" stroke-linecap="round" stroke-linejoin="round" stroke-width="4"/>
      <path id="Path_79" data-name="Path 79" d="M328.03,514.04,223.92,497.81" fill="none" stroke="#231f20" stroke-linecap="round" stroke-linejoin="round" stroke-width="4"/>
      <path id="Path_80" data-name="Path 80" d="M314.56,580.19l-50.59,21.6" fill="none" stroke="#231f20" stroke-linecap="round" stroke-linejoin="round" stroke-width="4"/>
    </g>
  </g>
</svg>
