<svg xmlns="http://www.w3.org/2000/svg" height="1227" width="1627" version="1.1" xmlns:xlink="http://www.w3.org/1999/xlink" xmlns:svgjs="http://svgjs.com/svgjs"><rect fill="#f3ebe9" width="1627" height="1227"></rect><g><path d="M450.57 341.05C534.03 320.6 688.17 407.2 800.37 396.14 913.27 385.02 983.53 276.29 1060.68 255.68 1137.84 235.07 1221.13 301.93 1242.1 383.25 1263.13 465.25 1221.15 561.77 1171.99 631.66 1123.46 700.8 1067.75 743.31 1010.48 783.87 953.26 825.12 893.73 863.77 798.93 898.48 704.07 932.49 573.95 962.56 492.33 915.11 410.02 867.71 376.27 743.5 366.03 616.55 355.17 490.37 367.18 362.21 450.57 341.05Z" fill="#efdcd7" opacity="1" stroke-width="4" stroke="none"></path></g><g><path d="M805.17 911.22L765.27 1045.48" stroke="#231f20" stroke-width="4" stroke-linecap="round" stroke-linejoin="round" opacity="1" fill="none"></path><path d="M766.93 889.96L718.02 954.7" stroke="#231f20" stroke-width="4" stroke-linecap="round" stroke-linejoin="round" opacity="1" fill="none"></path></g><g><path d="M851.67 259.2L866.95 193.6" stroke="#231f20" stroke-width="4" stroke-linecap="round" stroke-linejoin="round" opacity="1" fill="none"></path><path d="M870.06 330.26L938.11 249.87" stroke="#231f20" stroke-width="4" stroke-linecap="round" stroke-linejoin="round" opacity="1" fill="none"></path></g><g><path d="M362.69 448.47H658.93C693.57 448.47 721.65 476.54 721.65 511.18V805.89C721.65 840.53 693.57 868.6 658.93 868.6H362.69C328.05 868.6 299.98 840.53 299.98 805.89V511.18C299.98 476.54 328.05 448.47 362.69 448.47Z" fill="#ff9edd" opacity="1" stroke-width="4" stroke="none"></path><path d="M404.17 504.34L355.99 552.52" stroke="#000000" stroke-width="4" stroke-linecap="round" stroke-linejoin="round" opacity="1" fill="none"></path><path d="M404.17 552.52L355.99 504.34" stroke="#000000" stroke-width="4" stroke-linecap="round" stroke-linejoin="round" opacity="1" fill="none"></path></g><g><path d="M1287.71 367.11H935.14C911.26 367.11 891.96 386.41 891.96 410.29V741.54C891.96 765.41 911.26 784.72 935.14 784.72H1287.71C1311.59 784.72 1330.89 765.41 1330.89 741.54V410.29C1330.89 386.41 1311.51 367.11 1287.71 367.11Z" fill="#ffc930" opacity="1" stroke-width="4" stroke="none"></path><path d="M939.17 443.78C948.98 443.78 956.92 435.83 956.92 426.02 956.92 416.22 948.98 408.27 939.17 408.27 929.37 408.27 921.42 416.22 921.42 426.02 921.42 435.83 929.37 443.78 939.17 443.78Z" fill="#f3ebe9" opacity="1" stroke-width="4" stroke="none"></path><path d="M990.72 443.78C1000.53 443.78 1008.48 435.83 1008.48 426.02 1008.48 416.22 1000.53 408.27 990.72 408.27 980.92 408.27 972.97 416.22 972.97 426.02 972.97 435.83 980.92 443.78 990.72 443.78Z" fill="#f3ebe9" opacity="1" stroke-width="4" stroke="none"></path><path d="M1042.35 443.78C1052.16 443.78 1060.11 435.83 1060.11 426.02 1060.11 416.22 1052.16 408.27 1042.35 408.27 1032.55 408.27 1024.6 416.22 1024.6 426.02 1024.6 435.83 1032.55 443.78 1042.35 443.78Z" fill="#f3ebe9" opacity="1" stroke-width="4" stroke="none"></path></g><g><path d="M739.63 749.58C739.63 749.49 739.63 749.49 739.63 749.58 741.37 749.29 774.99 744.37 793.06 733.83 795.67 732.29 798.38 730.74 800.98 729.39 814.71 721.66 827.65 714.32 829.01 707.45 829.39 705.62 828.81 703.78 827.46 702.14V702.04C827.65 701.66 829.39 698.66 827.94 696.05 826.69 693.73 823.21 692.48 817.6 692.38H817.22C810.74 692.38 802.72 694.6 794.12 696.83 784.17 699.53 772.87 702.62 762.53 702.62 760.4 702.62 758.28 702.53 756.25 702.24 756.15 702.24 756.15 702.14 756.15 702.04 757.7 700.59 770.26 687.36 769.87 680.69 769.77 679.53 769.39 678.66 768.52 677.98 767.65 677.31 766.59 676.92 765.23 676.92 760.59 676.92 753.73 681.08 747.16 685.23 742.53 688.03 737.69 691.03 733.83 692.48 731.9 693.15 729.96 693.83 728.03 694.51 718.95 697.6 709.58 700.88 700.01 708.9 694.02 713.93 681.36 732.38 677.69 738.86V738.95L702.81 761.95 734.6 770.65C734.8 770.94 739.63 749.58 739.63 749.58Z" fill="#ae805a" opacity="1" stroke-width="4" stroke="none"></path><path d="M655.66 875.1C675.08 875.1 691.89 865.34 705.42 846.02 717.79 828.53 727.55 803.21 734.8 770.94V770.84L677.88 739.15H677.79C667.45 756.06 661.46 766.4 656.63 774.8 656.63 774.9 656.53 774.9 656.53 775 653.82 779.73 651.31 783.79 648.9 787.75 648.9 787.85 648.8 787.85 648.7 787.75 647.25 785.24 627.83 750.65 610.25 730.26 575.94 689.87 538.84 687.74 531.79 687.74 531.3 687.74 531.01 687.74 531.01 687.74V656.05C531.01 655.95 531.01 655.95 530.92 655.95H457.67C457.58 655.95 457.58 655.95 457.58 656.05 457.77 659.34 457.67 679.72 457.58 688.61 457.58 688.71 457.58 688.71 457.48 688.71 456.8 688.61 455.64 688.61 454.2 688.61 443.37 688.61 415.26 691.7 387.14 720.69 381.34 726.59 376.03 732.67 371.39 737.7V737.8L397.48 829.3C397.48 829.4 397.57 829.4 397.67 829.3L413.52 811.13C413.61 811.04 413.71 811.13 413.71 811.23L421.05 868.34C421.05 868.34 421.05 868.43 421.15 868.43L545.02 866.4 548.89 866.31 557.2 842.15 563 809.78C563 809.68 563.09 809.68 563.19 809.78 564.25 811.23 571.5 820.99 582.13 832.58 582.61 833.07 583 833.55 583.48 834.03 594.01 845.34 609.57 860.03 625.9 868.63 636.24 872.78 646.38 875.1 655.66 875.1Z" fill="#ffc930" opacity="1" stroke-width="4" stroke="none"></path><path d="M656.43 775.29C656.43 775.19 656.34 775.19 656.24 775.29 655.47 776.64 651.7 783.21 648.7 787.94V788.04L659.23 806.21C659.33 806.3 659.43 806.21 659.43 806.11L656.43 775.29Z" fill="#0f0d07" opacity="0.2" stroke-width="4" stroke="none"></path><path d="M566.76 782.73L562.8 809.59V809.68C569.18 818.09 575.75 826.21 582.9 833.84 583 833.94 583.09 833.84 583.09 833.74L567.05 782.73C566.96 782.63 566.86 782.63 566.76 782.73Z" fill="#0f0d07" opacity="0.2" stroke-width="4" stroke="none"></path><path d="M538.65 709L465.5 707.07C465.4 707.07 465.4 707.16 465.4 707.16L502.89 806.3C502.89 806.4 503.09 806.4 503.09 806.3L538.74 709.1 538.65 709Z" fill="#f6f4ef" opacity="1" stroke-width="4" stroke="none"></path><path d="M552.46 868.24L556.91 842.34C556.91 842.25 556.91 842.25 556.81 842.25H417.67C417.57 842.25 417.57 842.34 417.57 842.34L420.86 868.24C420.86 868.24 420.86 868.34 420.96 868.34L552.46 868.24C552.46 868.34 552.46 868.34 552.46 868.24Z" fill="#0f0d07" opacity="1" stroke-width="4" stroke="none"></path><path d="M462.31 1040.33C464.53 1040.33 465.98 1040.23 466.27 1040.23 466.27 1040.23 466.37 1040.23 466.37 1040.14 466.76 1036.85 477 938.1 478.93 868.34 480.86 798.57 483.86 691.61 483.96 687.84 483.96 687.74 483.96 687.74 483.86 687.74L457.67 688.61C457 688.52 455.84 688.52 454.29 688.52 448.88 688.52 439.22 689.19 427.43 693.44 415.45 697.79 401.34 705.72 387.14 720.31 381.34 726.2 376.31 731.71 371.77 736.73 371.77 736.73 371.68 736.83 371.58 736.93L376.99 771.13 397.86 828.72C397.86 828.72 397.86 828.72 397.86 828.82L349.55 1001.58V1001.68C397.67 1037.53 447.91 1040.33 462.31 1040.33Z" fill="#fe4f32" opacity="1" stroke-width="4" stroke="none"></path><path d="M537.2 681.08C545.51 681.08 557.39 674.31 562.13 671.12 562.42 670.93 562.71 670.74 563 670.54 583 656.73 574.69 633.44 570.53 618.56 569.76 615.66 567.25 605.9 566.57 602.04 565.41 595.37 564.16 587.35 561.06 579.14 559.9 576.04 553.24 570.92 553.14 570.83 552.95 570.73 526.86 556.33 518.26 556.33 509.56 556.33 500.09 553.24 483.76 560.97 470.24 567.35 457.58 580.97 457.58 609.19V665.04C457.58 665.13 457.58 665.13 457.67 665.13L513.52 671.32C513.72 671.12 522.9 681.08 537.2 681.08Z" fill="#ae805a" opacity="1" stroke-width="4" stroke="none"></path><path d="M508.6 595.95C543.19 593.44 557 583.87 561.06 579.14V579.04C558.94 573.53 557.58 570.92 556.91 569.67 551.79 560.2 542.99 554.4 534.68 551.11L517 549.09C517 549.09 498.84 548.31 482.51 556.04 475.36 559.42 466.27 565.42 462.7 575.27V575.37C463.37 576.43 477.87 598.07 508.6 595.95Z" fill="#231f20" opacity="1" stroke-width="4" stroke="none"></path><path d="M438.93 647.84C446.18 636.05 449.27 625.81 450.14 609.77 451.49 582.03 455.55 565.51 477.68 555.56 494 547.83 508.89 547.44 517.29 547.73 523.48 547.93 529.56 549.38 534.68 551.21 534.78 551.21 534.78 551.31 534.68 551.4 533.04 552.85 515.26 569.47 511.59 589.57 509.75 599.33 511.4 609.38 513.14 620.01 515.26 632.28 517.58 654.7 514.59 670.35 514.59 670.35 514.59 670.45 514.68 670.45 521.06 673.35 526.37 674.6 533.43 675.37 536.23 675.66 540.1 675.95 542.7 675.86 554.49 675.28 561.45 671.32 562.9 670.54 563 670.54 563 670.54 563 670.54 563.38 671.51 566.96 679.72 565.31 690.26 564.06 697.5 560.29 706.01 551.21 713.93 549.47 715.28 547.63 716.54 545.7 717.6 538.26 721.76 529.47 723.98 519.8 723.98 494.97 723.98 468.01 709.87 452.55 688.71H452.46C446.08 688.03 428.59 692.96 427.33 693.35 422.12 675.37 430.23 662.14 438.93 647.84Z" fill="#fe4f32" opacity="1" stroke-width="4" stroke="none"></path><path d="M542.7 675.86C554.59 675.28 561.45 671.32 562.9 670.54 563 670.54 563 670.54 563 670.54 563.38 671.51 566.96 679.53 565.31 689.97L565.22 690.06C564.35 690.06 555.56 690.16 547.15 686.1 537.78 681.66 534.1 676.24 533.52 675.28 535.46 675.47 540.19 675.95 542.7 675.86Z" fill="#000000" opacity="0.2" stroke-width="4" stroke="none"></path><path d="M435.35 691.32C437.38 685.91 439.99 681.46 445.02 674.31 445.02 674.22 445.21 674.22 445.21 674.31 446.95 679.43 449.27 684.26 452.55 688.52 468.01 709.68 494.97 723.78 519.8 723.78 529.27 723.78 537.87 721.66 545.22 717.7 545.31 717.6 545.41 717.79 545.31 717.79 538.07 726.39 525.22 736.15 504.15 736.15 502.41 736.15 500.67 736.06 498.93 736.06 465.4 733.74 450.23 704.46 444.63 689.48L444.53 689.39C441.54 689.87 438.45 690.64 435.35 691.32 435.26 691.41 435.35 691.51 435.35 691.32Z" fill="#000000" opacity="0.2" stroke-width="4" stroke="none"></path><path d="M487.92 992.98C488.11 992.98 488.4 992.98 488.59 992.89 489.27 992.69 489.85 992.31 490.14 991.53 492.36 986.61 484.54 970.28 482.99 967.28 482.99 967.18 483.09 967.09 483.18 967.18 485.6 969.31 499.22 980.91 507.92 986.12 511.2 988.06 514.1 989.12 516.62 989.12 522.61 989.12 524.15 983.13 524.44 982.35 524.44 982.26 524.54 982.26 524.54 982.26 525.99 982.74 527.34 982.93 528.69 982.93 531.98 982.93 534.78 981.68 536.42 979.36 537.87 977.23 538.07 974.53 537 971.73V971.63C539.03 970.47 540 968.63 540.1 966.12 540.77 952.88 515.17 924.48 504.05 916.65 490.91 907.18 459.61 899.55 458.64 899.26 454.97 895.39 449.85 889.98 443.95 883.12H443.86L419.02 903.89 400.57 933.08V933.17C412.84 942.16 423.18 948.83 427.91 951.43 436.42 956.17 448.4 958.68 459.8 960.71 459.8 960.71 459.9 960.71 459.9 960.81 460.57 962.26 479.99 992.98 487.92 992.98Z" fill="#ae805a" opacity="1" stroke-width="4" stroke="none"></path><path d="M443.86 882.93C424.05 860.61 398.25 829.4 397.77 828.72L386.46 788.91 371.77 737.02C371.77 736.93 371.68 736.93 371.58 737.02 331.48 781.47 314.67 816.93 320.47 845.24 328 876.94 378.83 917.33 400.47 933.17L443.86 883.22C443.95 883.02 443.95 883.02 443.86 882.93Z" fill="#ffc930" opacity="1" stroke-width="4" stroke="none"></path><path d="M562.8 809.68L566.86 782.34" stroke="#0f0d07" stroke-width="4" stroke-linecap="round" stroke-linejoin="round" opacity="1" fill="none"></path><path d="M648.8 787.94L659.52 806.59" stroke="#0f0d07" stroke-width="4" stroke-linecap="round" stroke-linejoin="round" opacity="1" fill="none"></path><path d="M397.77 828.72L386.17 816.16" stroke="#0f0d07" stroke-width="4" stroke-linecap="round" stroke-linejoin="round" opacity="1" fill="none"></path><path d="M524.35 982.35L487.63 944.67" stroke="#151413" stroke-width="4" stroke-linecap="round" stroke-linejoin="round" opacity="1" fill="none"></path><path d="M536.81 971.73L498.26 932.01" stroke="#151413" stroke-width="4" stroke-linecap="round" stroke-linejoin="round" opacity="1" fill="none"></path><path d="M482.7 966.8L474.2 956.46" stroke="#151413" stroke-width="4" stroke-linecap="round" stroke-linejoin="round" opacity="1" fill="none"></path><path d="M827.46 702.04C820.89 700.59 813.93 699.24 804.27 702.14 794.61 705.04 785.04 709 778.28 709.97" stroke="#151413" stroke-width="4" stroke-linecap="round" stroke-linejoin="round" opacity="1" fill="none"></path><path d="M824.37 713.54C817.51 709.19 810.36 711.42 803.5 713.74 799.15 715.28 783.5 722.53 771.9 722.53 760.31 722.53 734.99 709.87 717.6 718.57" stroke="#151413" stroke-width="4" stroke-linecap="round" stroke-linejoin="round" opacity="1" fill="none"></path><path d="M757.5 702.43C757.5 702.43 750.35 701.85 744.65 702.62" stroke="#151413" stroke-width="4" stroke-linecap="round" stroke-linejoin="round" opacity="1" fill="none"></path><path d="M548.41 619.24C548.41 619.24 550.14 622.13 550.14 624.36 550.05 625.42 549.37 626.39 548.41 626.97" stroke="#151413" stroke-width="4" stroke-linecap="round" stroke-linejoin="round" opacity="1" fill="none"></path><path d="M530.92 611.99C528.31 611.99 526.47 614.89 528.5 617.69 531.3 619.62 534.2 617.88 534.2 615.27 534.3 613.44 532.85 611.99 530.92 611.99Z" fill="#231f20" opacity="1" stroke-width="4" stroke="none"></path><path d="M550.34 639.43C545.51 640.88 542.22 639.04 540.68 636.53" stroke="#151413" stroke-width="4" stroke-linecap="round" stroke-linejoin="round" opacity="1" fill="none"></path><path d="M452.17 688.52C442.6 689.48 437.48 690.74 427.43 693.44" stroke="#000000" stroke-width="4" stroke-linecap="round" stroke-linejoin="round" opacity="1" fill="none"></path><path d="M483.09 714.51C471.1 708.42 460.86 699.63 452.84 688.9 450.72 685.91 446.37 677.89 445.21 674.41" stroke="#000000" stroke-width="4" stroke-linecap="round" stroke-linejoin="round" opacity="1" fill="none"></path><path d="M514.59 670.16C514.59 670.16 512.56 677.89 506.95 685.33" stroke="#000000" stroke-width="4" stroke-linecap="round" stroke-linejoin="round" opacity="1" fill="none"></path><path d="M559.32 608.32C556.71 608.32 554.88 611.22 556.91 614.02 559.71 615.95 562.61 614.21 562.61 611.6 562.71 609.77 561.26 608.32 559.32 608.32Z" fill="#231f20" opacity="1" stroke-width="4" stroke="none"></path></g><g><path d="M1156.65 608.92C1166.06 608.92 1170.77 605.92 1170.77 599.93 1170.77 592.87 1171.52 581.64 1172.37 568.48 1174.3 539.27 1176.76 503 1172.91 486.42 1167.13 462.14 1141.88 453.47 1120.27 453.47 1112.04 453.47 1103.58 454.65 1095.99 457 1072.56 464.06 1067.96 482.68 1062.72 504.18 1062.08 506.96 1061.33 509.74 1060.68 512.52 1059.51 512.74 1051.7 514.24 1051.06 517.45 1050.2 521.62 1055.76 526.97 1056.51 527.72 1052.55 550.61 1056.3 564.95 1068.39 572.76 1074.16 576.5 1080.05 578.32 1086.47 578.32 1091.71 578.32 1097.49 577.04 1101.66 575.86L1100.7 594.58 1100.8 594.69C1101.34 594.9 1136.54 608.92 1156.65 608.92Z" fill="#e59763" opacity="1" stroke-width="4" stroke="none"></path><path d="M1017.36 660.38C1017.68 659.63 1050.09 586.45 1052.98 580.78 1054.37 578 1055.87 575.11 1056.73 572.11 1057.05 570.72 1057.47 569.01 1056.83 567.73 1055.87 565.59 1052.98 566.34 1051.27 566.87 1045.49 568.8 1040.68 572.97 1035.97 576.71 1034.15 578.1 1032.44 579.6 1030.52 580.89 1029.02 581.85 1027.09 583.03 1025.49 581.74 1023.35 580.03 1024.74 576.93 1025.91 575.11 1027.73 572.33 1030.3 570.08 1032.87 568.16 1036.83 565.27 1040.79 563.34 1044.32 561.63 1049.45 559.17 1053.09 557.46 1053.09 554.14 1053.09 546.44 1037.47 548.79 1033.08 549.33 1024.31 550.5 1015.54 552.86 1007.83 557.35 999.92 561.95 993.28 568.69 989.22 576.93 979.27 596.93 977.45 600.36 964.93 623.36L964.61 627.42 1017.36 660.8V660.38 660.38Z" fill="#e59763" opacity="1" stroke-width="4" stroke="none"></path><path d="M1224.8 799.67C1232.39 799.56 1252.51 793.57 1259.35 765.54 1262.67 750.78 1260.32 729.59 1252.61 704.35 1246.19 683.06 1235.92 659.52 1224.69 639.62 1204.58 604.32 1174.41 593.08 1171.84 592.23L1171.73 583.45 1101.12 583.56 1100.38 591.58C1061.65 593.3 1034.69 620.9 1034.47 621.11 1034.37 621.22 1021.64 635.02 1013.18 645.61L965.15 623.04C950.17 650.32 919.15 716.65 956.05 742.86 964.08 748.53 973.6 751.42 984.19 751.42 1018.43 751.42 1055.12 721.46 1058.76 718.47L1069.99 784.26 1191.52 784.37C1196.98 795.17 1213.03 799.77 1224.8 799.67Z" fill="#fe4f32" opacity="1" stroke-width="4" stroke="none"></path><path d="M1198.59 736.76C1209.6 744.57 1211.21 760.08 1214.53 772.92 1217.41 784.05 1221.48 790.89 1224.69 799.67 1213.03 799.77 1196.87 795.17 1191.42 784.37L1198.16 736.55 1198.59 736.76Z" fill="#505050" opacity="0.2" stroke-width="4" stroke="none"></path><path d="M1069.99 784.26L1058.76 718.47 1074.38 705.52 1108.08 784.26H1069.99Z" fill="#505050" opacity="0.2" stroke-width="4" stroke="none"></path><path d="M1173.55 485.35C1167.67 460.85 1142.21 452.08 1120.38 452.08 1112.04 452.08 1103.48 453.26 1095.88 455.61 1077.59 461.17 1071.38 474.33 1067.42 485.99 1067.42 485.99 1071.7 489.31 1078.23 489.31 1082.51 489.31 1086.9 487.81 1090.85 484.92 1089.25 495.3 1090.1 502.68 1093.42 506.53 1095.35 508.89 1098.13 510.06 1101.87 510.06 1107.33 510.06 1112.79 507.39 1114.5 506.53 1113.21 509.74 1107.22 526.43 1118.03 533.28L1118.13 533.39 1118.24 533.28C1118.35 533.17 1132.04 521.94 1143.81 521.94 1148.2 521.94 1151.94 523.54 1154.62 526.75 1156.97 529.53 1158.04 532.96 1157.72 536.6 1156.65 548.47 1141.78 560.88 1141.56 560.99L1141.35 561.2 1141.56 561.42C1151.19 569.01 1172.7 569.55 1172.7 569.55 1172.7 569.55 1179.22 504.5 1173.55 485.35Z" fill="#010005" opacity="1" stroke-width="4" stroke="none"></path><path d="M1066.14 538.63L1076.41 538.95" stroke="#000000" stroke-width="4" stroke-linecap="round" stroke-linejoin="round" opacity="1" fill="none"></path><path d="M1073.52 519.37C1071.87 519.37 1070.53 518.03 1070.53 516.38 1070.53 514.72 1071.87 513.38 1073.52 513.38 1075.18 513.38 1076.52 514.72 1076.52 516.38 1076.52 518.03 1075.18 519.37 1073.52 519.37Z" fill="#010005" opacity="1" stroke-width="4" stroke="none"></path><path d="M1058.44 718.79C1066.03 712.9 1072.77 706.16 1079.62 699.53" stroke="#4d4d4d" stroke-width="4" stroke-linecap="round" stroke-linejoin="round" opacity="1" fill="none"></path><path d="M1013.83 644.76L992.96 670.54" stroke="#4d4d4d" stroke-width="4" stroke-linecap="round" stroke-linejoin="round" opacity="1" fill="none"></path><path d="M1191.95 782.87L1202.65 707.98" stroke="#4d4d4d" stroke-width="4" stroke-linecap="round" stroke-linejoin="round" opacity="1" fill="none"></path><path d="M1100.8 576.07C1109.36 572.65 1115.78 569.65 1115.78 569.65" stroke="#000000" stroke-width="4" stroke-linecap="round" stroke-linejoin="round" opacity="1" fill="none"></path><path d="M1129.58 549.01L1138.46 542.16" stroke="#000000" stroke-width="4" stroke-linecap="round" stroke-linejoin="round" opacity="1" fill="none"></path></g><g><path d="M812.32 328.71L723.21 346.05 753.31 500.8 878.81 476.39 855.79 358.03 812.32 328.71Z" fill="#61ccff" opacity="1" stroke-width="4" stroke="none"></path><path d="M829.54 372.59L855.79 358.03 816.89 339.51 829.54 372.59Z" fill="#000000" opacity="0.3" stroke-width="4" stroke="none"></path><path d="M819.4 365.11L855.79 358.03 812.32 328.71 819.4 365.11Z" fill="#fe4f32" opacity="1" stroke-width="4" stroke="none"></path><path d="M782.93 400.79L756.06 406.02 761.28 432.89 788.15 427.66 782.93 400.79Z" fill="#a6ddf8" opacity="0.3" stroke-width="4" stroke="none"></path><path d="M774.58 357.87L747.71 363.1 752.93 389.96 779.8 384.74 774.58 357.87Z" fill="#a6ddf8" opacity="0.3" stroke-width="4" stroke="none"></path><path d="M791.27 443.71L764.41 448.94 769.63 475.81 796.5 470.58 791.27 443.71Z" fill="#a6ddf8" opacity="0.3" stroke-width="4" stroke="none"></path><path d="M782.93 400.79L756.06 406.02 761.28 432.89 788.15 427.66 782.93 400.79Z" stroke="#000000" stroke-width="4" stroke-linecap="round" stroke-linejoin="round" opacity="1" fill="none"></path><path d="M778.94 408.8L772.34 424.24 764.34 418.46" stroke="#000000" stroke-width="4" stroke-linecap="round" stroke-linejoin="round" opacity="1" fill="none"></path><path d="M774.58 357.87L747.71 363.1 752.93 389.96 779.8 384.74 774.58 357.87Z" stroke="#000000" stroke-width="4" stroke-linecap="round" stroke-linejoin="round" opacity="1" fill="none"></path><path d="M791.27 443.71L764.41 448.94 769.63 475.81 796.5 470.58 791.27 443.71Z" stroke="#000000" stroke-width="4" stroke-linecap="round" stroke-linejoin="round" opacity="1" fill="none"></path></g><g><path d="M886.81 989.89L849.67 1016.27 865.23 974.91 823.85 967.96 861.15 949.01 845.48 913.41 882.72 933.65 902.68 891.33 909.33 936.56 956.22 930.76 920.8 958.17 950.9 981 910.7 981.12 911.55 1024.47 886.81 989.89Z" stroke="#61ccff" stroke-width="4" stroke-linecap="round" stroke-linejoin="round" opacity="1" fill="none"></path></g><g><path d="M640.85 313.89L623.02 327.21 629.79 306.31 608.92 303.7 627.92 293.39 617.78 272.99 638.57 284.22 646.62 267.16 652.14 287.06 673.37 279.4 657.93 297.9 676.6 310.58 654.2 310.66 654.51 332.23 640.85 313.89Z" stroke="#ffc930" stroke-width="4" stroke-linecap="round" stroke-linejoin="round" opacity="1" fill="none"></path></g><g><path d="M225.35 653.07L243.83 638.52 236.87 660.25 258.39 662.77 239.64 673.5 248.63 691.46 228.91 681.98 219.7 704.31 215.11 681.16 191.07 685.35 208.64 670.31 192.53 659.3 213.26 658.21 211.71 635.87 225.35 653.07Z" stroke="#61ccff" stroke-width="4" stroke-linecap="round" stroke-linejoin="round" opacity="1" fill="none"></path></g><g><path d="M1397.22 498.78L1406.88 477.43 1413.31 499.35 1439.7 488.05 1423.97 511.35 1443.85 524.52 1417.94 526.43 1421.26 551.47 1403.29 533.74 1386.6 546.85 1390.19 526.37 1367.19 524.56 1387.84 511.22 1376.27 489.33 1397.22 498.78Z" stroke="#ff9edd" stroke-width="4" stroke-linecap="round" stroke-linejoin="round" opacity="1" fill="none"></path></g><g><path d="M1324.33 621.92L1416.85 644.49" stroke="#231f20" stroke-width="4" stroke-linecap="round" stroke-linejoin="round" opacity="1" fill="none"></path><path d="M1386.68 683.5L1493.53 752.05" stroke="#231f20" stroke-width="4" stroke-linecap="round" stroke-linejoin="round" opacity="1" fill="none"></path></g><g><path d="M300.06 425.14L246.54 380.93" stroke="#231f20" stroke-width="4" stroke-linecap="round" stroke-linejoin="round" opacity="1" fill="none"></path><path d="M328.03 514.04L223.92 497.81" stroke="#231f20" stroke-width="4" stroke-linecap="round" stroke-linejoin="round" opacity="1" fill="none"></path><path d="M314.56 580.19L263.97 601.79" stroke="#231f20" stroke-width="4" stroke-linecap="round" stroke-linejoin="round" opacity="1" fill="none"></path></g></svg>