<!DOCTYPE svg PUBLIC "-//W3C//DTD SVG 1.1//EN" "http://www.w3.org/Graphics/SVG/1.1/DTD/svg11.dtd">
<!-- Uploaded to: SVG Repo, www.svgrepo.com, Transformed by: SVG Repo Mixer Tools -->
<svg fill="#000000" width="256px" height="256px" viewBox="0 0 24.00 24.00" id="stopwatch-3-second" data-name="Flat Line" xmlns="http://www.w3.org/2000/svg" class="icon flat-line">
<g id="SVGRepo_bgCarrier" stroke-width="0"/>
<g id="SVGRepo_tracerCarrier" stroke-linecap="round" stroke-linejoin="round"/>
<g id="SVGRepo_iconCarrier">
<path id="secondary" d="M12,6a7.5,7.5,0,1,0,7.5,7.5A7.5,7.5,0,0,0,12,6Zm3.46,8H12V10a3.5,3.5,0,0,1,3.5,3.5A2.74,2.74,0,0,1,15.46,14Z" style="fill: #ff9600; stroke-width:0.72;"/>
<path id="primary" d="M17.3,8.2l1.5-1.5M6.7,8.2,5.2,6.7M12,10v4h3.46a2.74,2.74,0,0,0,0-.5A3.5,3.5,0,0,0,12,10Zm0-4V3M9,3h6M4.5,13.5A7.5,7.5,0,1,0,12,6,7.5,7.5,0,0,0,4.5,13.5Z" style="fill: none; stroke: #000000; stroke-linecap: round; stroke-linejoin: round; stroke-width:0.72;"/>
</g>
</svg>